<?xml version="1.0" encoding="utf-8"?>
<!-- Generator: Adobe Illustrator 16.0.0, SVG Export Plug-In . SVG Version: 6.00 Build 0)  -->
<!DOCTYPE svg PUBLIC "-//W3C//DTD SVG 1.1//EN" "http://www.w3.org/Graphics/SVG/1.1/DTD/svg11.dtd">
<svg version="1.1" id="Layer_1" xmlns="http://www.w3.org/2000/svg" xmlns:xlink="http://www.w3.org/1999/xlink" x="0px" y="0px"
	 width="24.02px" height="24.02px" viewBox="0 0 24.02 24.02" enable-background="new 0 0 24.02 24.02" xml:space="preserve">
<path fill-rule="evenodd" clip-rule="evenodd" d="M17.09,8.04l-6.62,6.63l-4.04-4.04L5.08,11.98l5.66,5.659l7.98-7.97L17.09,8.04z
	 M12.01,20.99c-4.95,0-8.98-4.03-8.98-8.98s4.03-8.98,8.98-8.98s8.979,4.03,8.979,8.98S16.96,20.99,12.01,20.99z M12.01,1.5
	C6.22,1.51,1.51,6.21,1.5,12.01c0.01,5.79,4.72,10.5,10.51,10.51c5.79-0.01,10.5-4.72,10.51-10.51C22.51,6.21,17.8,1.51,12.01,1.5z
	 M12.01,24.02C5.39,24.02,0,18.63,0,12.01C0,5.38,5.39,0,12.01,0c6.63,0,12.01,5.38,12.01,12.01
	C24.02,18.63,18.64,24.02,12.01,24.02z"/>
</svg>
