<?xml version="1.0" encoding="utf-8"?>
<!-- Generator: Adobe Illustrator 16.0.0, SVG Export Plug-In . SVG Version: 6.00 Build 0)  -->
<!DOCTYPE svg PUBLIC "-//W3C//DTD SVG 1.1//EN" "http://www.w3.org/Graphics/SVG/1.1/DTD/svg11.dtd">
<svg version="1.1" id="Layer_1" xmlns="http://www.w3.org/2000/svg" xmlns:xlink="http://www.w3.org/1999/xlink" x="0px" y="0px"
	 width="39px" height="32px" viewBox="0 0 39 32" enable-background="new 0 0 39 32" xml:space="preserve">
<path d="M23.303,8C21.653,3.342,17.222,0,12,0C5.373,0,0,5.372,0,12c0,4.84,2.872,9.001,7,10.898V32h32V8H23.303z M28.195,15.898
	c1.705,0,3.084,1.383,3.084,3.086c0,1.701-1.379,3.085-3.084,3.085c-1.703,0-3.084-1.384-3.084-3.085
	C25.111,17.281,26.492,15.898,28.195,15.898z M12,22C6.477,22,2,17.522,2,12C2,6.477,6.477,2,12,2c5.522,0,10,4.477,10,10
	C22,17.522,17.522,22,12,22z M34.391,28.087H22v-2.87c0-1.585,1.285-2.872,2.871-2.872h1.115l2.152,2.153l2.154-2.153h1.227
	c1.586,0,2.871,1.287,2.871,2.872V28.087z M13.326,5.332c0.895,0,1.34,0.608,1.34,1.305c0,0.869-0.775,1.672-1.785,1.672
	c-0.846,0-1.338-0.5-1.314-1.325C11.566,6.288,12.152,5.332,13.326,5.332z M10.58,18.655c-0.705,0-1.221-0.434-0.729-2.346
	l0.809-3.393c0.142-0.543,0.164-0.76,0-0.76c-0.211,0-1.125,0.375-1.666,0.744l-0.352-0.586c1.713-1.456,3.686-2.31,4.531-2.31
	c0.703,0,0.82,0.847,0.469,2.152l-0.926,3.565c-0.164,0.63-0.094,0.848,0.07,0.848c0.211,0,0.904-0.261,1.586-0.806l0.398,0.544
	C13.104,18.005,11.284,18.655,10.58,18.655z"/>
</svg>
