<?xml version="1.0" encoding="utf-8"?>
<!-- Generator: Adobe Illustrator 16.0.0, SVG Export Plug-In . SVG Version: 6.00 Build 0)  -->
<!DOCTYPE svg PUBLIC "-//W3C//DTD SVG 1.1//EN" "http://www.w3.org/Graphics/SVG/1.1/DTD/svg11.dtd">
<svg version="1.1" id="Layer_1" xmlns="http://www.w3.org/2000/svg" xmlns:xlink="http://www.w3.org/1999/xlink" x="0px" y="0px"
	 width="26.4px" height="23.98px" viewBox="0 0 26.4 23.98" enable-background="new 0 0 26.4 23.98" xml:space="preserve">
<path fill-rule="evenodd" clip-rule="evenodd" d="M14.1,8.85C13.82,8.59,13.49,8.46,13.12,8.46c-0.38,0-0.71,0.13-0.98,0.39
	c-0.27,0.26-0.41,0.58-0.41,0.94c0,0.18,0.04,0.45,0.12,0.81l0.25,1.11c0.1,0.41,0.21,0.91,0.34,1.52c0.13,0.6,0.26,1.359,0.41,2.27
	h0.55c0.14-0.9,0.27-1.66,0.4-2.27c0.129-0.61,0.25-1.12,0.35-1.53l0.26-1.13c0.07-0.32,0.1-0.58,0.1-0.78
	C14.51,9.43,14.37,9.11,14.1,8.85z M12.16,18.62c0.27,0.261,0.59,0.39,0.96,0.39s0.69-0.129,0.96-0.39
	c0.28-0.26,0.42-0.569,0.42-0.94c0-0.359-0.14-0.67-0.42-0.939c-0.27-0.26-0.59-0.391-0.96-0.391s-0.69,0.131-0.96,0.391
	c-0.28,0.27-0.41,0.58-0.41,0.939C11.75,18.051,11.88,18.36,12.16,18.62z M22.17,20.76H4.23c-0.9,0-1.271-0.64-0.82-1.41l3.67-6.359
	l1.63-2.83l3.67-6.35c0.45-0.78,1.19-0.78,1.641,0l3.67,6.35l1.63,2.83l3.67,6.359C23.44,20.12,23.07,20.76,22.17,20.76z
	 M24.521,18.471L15.54,2.92c-0.55-0.95-1.42-1.46-2.34-1.46s-1.79,0.52-2.34,1.47L1.88,18.461c-0.28,0.5-0.42,1.02-0.42,1.52
	c0,0.439,0.11,0.869,0.33,1.25c0.46,0.789,1.34,1.289,2.44,1.289h0.05h17.89c1.101,0,1.98-0.5,2.44-1.289
	c0.22-0.381,0.33-0.801,0.33-1.25C24.94,19.48,24.801,18.961,24.521,18.471z M25.88,21.961c-0.75,1.279-2.149,2.02-3.7,2.02H4.01H4
	c-1.46-0.07-2.77-0.801-3.47-2.02C0.17,21.35,0,20.66,0,19.98c0-0.77,0.21-1.54,0.62-2.25L9.59,2.2C10.36,0.85,11.71,0,13.2,0
	c1.479,0,2.84,0.85,3.61,2.19l8.97,15.55c0.41,0.7,0.62,1.471,0.62,2.24C26.4,20.66,26.23,21.35,25.88,21.961z"/>
</svg>
