<?xml version="1.0" encoding="utf-8"?>
<!-- Generator: Adobe Illustrator 16.0.0, SVG Export Plug-In . SVG Version: 6.00 Build 0)  -->
<!DOCTYPE svg PUBLIC "-//W3C//DTD SVG 1.1//EN" "http://www.w3.org/Graphics/SVG/1.1/DTD/svg11.dtd">
<svg version="1.1" id="Layer_1" xmlns="http://www.w3.org/2000/svg" xmlns:xlink="http://www.w3.org/1999/xlink" x="0px" y="0px"
	 width="401.577px" height="100.256px" viewBox="0 0 401.577 100.256" enable-background="new 0 0 401.577 100.256"
	 xml:space="preserve">
<g>
	<g>
		<g>
			<g>
				<g>
					<linearGradient id="SVGID_1_" gradientUnits="userSpaceOnUse" x1="35.604" y1="70.251" x2="35.604" y2="54.1255">
						<stop  offset="0" style="stop-color:#FFF1E2"/>
						<stop  offset="0.0874" style="stop-color:#FFE4C6"/>
						<stop  offset="0.2714" style="stop-color:#FECC93"/>
						<stop  offset="0.4488" style="stop-color:#FCB96C"/>
						<stop  offset="0.6148" style="stop-color:#FAAA4A"/>
						<stop  offset="0.7668" style="stop-color:#F99F31"/>
						<stop  offset="0.9" style="stop-color:#F89921"/>
						<stop  offset="1" style="stop-color:#F8971D"/>
					</linearGradient>
					<path fill="url(#SVGID_1_)" stroke="#F8971D" stroke-width="1.8261" d="M50.426,46.714c-3.391,4.494-8.758,7.409-14.817,7.409
						c-6.073,0-11.434-2.915-14.823-7.415L6.748,54.807c6.222,9.309,16.825,15.444,28.861,15.444
						c12.036,0,22.635-6.133,28.85-15.437L50.426,46.714z"/>
					<linearGradient id="SVGID_2_" gradientUnits="userSpaceOnUse" x1="6.8887" y1="15.8262" x2="27.0041" y2="32.705">
						<stop  offset="0" style="stop-color:#AAC1DE"/>
						<stop  offset="0.0807" style="stop-color:#9CB7D9"/>
						<stop  offset="0.3095" style="stop-color:#7AA2CD"/>
						<stop  offset="0.5258" style="stop-color:#6394C5"/>
						<stop  offset="0.7226" style="stop-color:#548DC0"/>
						<stop  offset="0.882" style="stop-color:#4F8ABE"/>
					</linearGradient>
					<path fill="url(#SVGID_2_)" stroke="#4F8ABE" stroke-width="1.8261" d="M18.515,42.822c-0.953-2.235-1.48-4.687-1.48-7.268
						c0-9.499,7.131-17.31,16.324-18.421V0.974C15.25,2.135,0.913,17.153,0.913,35.555c0,5.511,1.322,10.714,3.609,15.347
						L18.515,42.822z"/>
					<linearGradient id="SVGID_3_" gradientUnits="userSpaceOnUse" x1="65.8477" y1="18.3413" x2="51.4539" y2="26.3954">
						<stop  offset="0" style="stop-color:#D8DEBD"/>
						<stop  offset="0.0627" style="stop-color:#CDD5AA"/>
						<stop  offset="0.1941" style="stop-color:#BBC68A"/>
						<stop  offset="0.3317" style="stop-color:#ACB971"/>
						<stop  offset="0.4752" style="stop-color:#A1B05F"/>
						<stop  offset="0.6272" style="stop-color:#99AA50"/>
						<stop  offset="0.7933" style="stop-color:#95A648"/>
						<stop  offset="1" style="stop-color:#94A545"/>
					</linearGradient>
					<path fill="url(#SVGID_3_)" stroke="#94A545" stroke-width="1.8261" d="M37.855,17.134c9.198,1.111,16.322,8.922,16.322,18.421
						c0,2.581-0.525,5.037-1.48,7.275l13.993,8.071c2.295-4.628,3.616-9.826,3.616-15.347c0-18.401-14.341-33.42-32.451-34.581
						V17.134z"/>
				</g>
				<g>
					<path fill="#010101" d="M50.673,35.612c0,8.317-6.745,15.065-15.063,15.065c-8.325,0-15.067-6.748-15.067-15.065
						c0-8.323,6.742-15.067,15.067-15.067C43.928,20.545,50.673,27.289,50.673,35.612z"/>
					<g>
						<path fill="#FFFFFF" d="M38.398,26.792c0,1.541-1.253,2.785-2.788,2.785c-1.542,0-2.788-1.244-2.788-2.785
							c0-1.537,1.245-2.781,2.788-2.781C37.145,24.011,38.398,25.255,38.398,26.792z"/>
						<path fill="#FFFFFF" d="M44.68,27.041c-0.191-0.19-0.445-0.308-0.742-0.308c-0.291,0-0.72,0.32-0.912,0.507
							c-1.817,1.984-4.608,3.433-7.515,3.433c-2.877,0-5.568-1.513-7.449-3.398c-0.185-0.18-0.621-0.542-0.912-0.542
							c-0.286,0-0.551,0.118-0.738,0.308c-0.188,0.188-0.186,0.904-0.186,1.192c1.079,2.529,3.243,4.719,5.866,5.798l0.222,5.227
							l-0.245,7.302c0,0.66,0.535,1.19,1.191,1.19h0.202c0.659,0,1.198-0.53,1.198-1.19l0.531-6.375h0.838l0.317,6.375
							c0,0.66,0.532,1.19,1.192,1.19h0.201c0.662,0,1.192-0.53,1.192-1.19l-0.029-7.302l0.213-5.254
							c2.46-0.997,4.463-2.941,5.527-5.329c0.183-0.188,0.339-0.607,0.339-0.895C44.983,27.49,44.873,27.229,44.68,27.041z"/>
					</g>
				</g>
			</g>
		</g>
	</g>
</g>
<g>
	<path d="M156.299,19.729c1.366-0.202,2.732-0.456,4.152-0.456c4.104,0,6.837,3.039,6.837,7.093c0,5.619-5.065,7.344-9.878,7.344
		h-1.111V19.729z M180.094,50.981v-0.915c-4.6-0.353-6.421-2.835-8.901-6.278l-6.539-9.119c4.406-0.908,8.308-3.644,8.308-8.508
		c0-2.932-1.769-8.708-11.648-8.708h-14.539v0.914c4.762,0,4.762,1.266,4.762,5.516v20.665c0,4.257,0,5.519-4.762,5.519v0.915
		h14.285v-0.915c-4.76,0-4.76-1.262-4.76-5.519v-9.215h3.44l11.399,15.648H180.094z"/>
	<path d="M252.798,32.308c2.842-3.144,4.809-4.76,7.7-4.76c4.104,0,5.725,3.847,5.725,7.645v11.396c0,2.986,1.163,3.343,3.492,3.396
		v0.911h-11.089v-0.911c2.326-0.053,3.497-0.409,3.497-3.396V36.103c0-5.016-2.084-5.517-3.597-5.517
		c-2.332,0-4.058,1.519-5.729,3.238v12.764c0,2.986,1.167,3.343,3.496,3.396v0.911h-11.096v-0.911c2.333-0.053,3.5-0.409,3.5-3.396
		V34.235c0-3.446-1.067-3.446-1.775-3.446c-0.559,0-1.217,0.203-1.725,0.402l-0.352-0.863l6.838-2.779h1.113V32.308z"/>
	<path d="M290.031,42.283c-0.858,4.711-4.308,9.319-9.421,9.319c-5.721,0-9.672-5.166-9.672-12.105
		c0-7.287,5.164-11.948,10.839-11.948c2.991,0,7.591,1.972,7.591,5.468c0,1.312-0.957,2.077-2.221,2.077
		c-2.074,0-2.633-1.067-2.838-2.884c-0.153-1.982-1.37-2.944-3.342-2.944c-4.357,0-6.078,4.411-6.078,8.158
		c0,4.353,2.225,10.332,7.396,10.332c3.642,0,5.874-2.688,7.038-5.824L290.031,42.283z"/>
	<path d="M214.644,47.67c-7.871-0.05-8.991-0.405-8.991-1.624c0-1.122,1.066-2.239,1.883-2.904c1.063,0.309,2.134,0.511,3.246,0.511
		c6.204,0,9.1-3.912,9.1-7.721c0-1.319-0.409-3.457-1.221-4.572h3.617l1.445-1.936c0,0-6.354,0-6.749,0
		c-0.963-0.861-2.946-1.876-5.78-1.876c-6.659,0-9.2,4.872-9.2,8.279c0,2.949,1.58,5.639,4.32,6.863
		c-1.527,1.322-4.016,3.203-4.016,5.39c0,1.316,1.417,2.08,2.488,2.536l-1.268,1.321c-1.066,1.116-3.354,3.558-3.354,5.185
		c0,3.453,6.509,4.829,10.009,4.829c8.285,0,12.65-5.438,12.65-8.536C222.823,49.65,220.544,47.721,214.644,47.67z M210.53,28.761
		c3.863,0,5.03,4.578,5.03,7.677c0,1.119,0,5.992-4.271,5.992c-3.917,0-4.977-4.571-4.977-7.72
		C206.313,29.677,209.106,28.761,210.53,28.761z M212.159,58.952c-4.828,0-8.336-1.527-8.336-3.607c0-1.676,1.271-3.205,2.18-4.376
		c1.883,0.457,7.119,0.563,8.641,0.563c2.388,0,6.357,0,6.357,2.488C221.001,56.26,218.458,58.952,212.159,58.952z"/>
	<path d="M191.314,47.546c-5.517,0-8.149-5.673-8.149-10.733c0-4.708,2.428-7.444,5.366-7.444c3.59,0,5.159,2.785,5.159,5.921
		h-8.347l1.125,1.523h12.388c0-5.468-3.445-9.265-8.653-9.265c-7.185,0-10.475,5.867-10.475,12.401
		c0,6.938,4.349,11.646,9.864,11.646c5.11,0,8.4-4.303,9.263-8.961l-0.764-0.504C196.931,45.42,194.957,47.546,191.314,47.546z"/>
	<path d="M235.761,47.546c-5.518,0-8.146-5.673-8.146-10.733c0-4.708,2.428-7.444,5.358-7.444c3.596,0,5.163,2.785,5.163,5.921
		h-8.346l1.124,1.523h12.384c0-5.468-3.438-9.265-8.65-9.265c-7.184,0-10.479,5.867-10.479,12.401
		c0,6.938,4.354,11.646,9.873,11.646c5.11,0,8.394-4.303,9.256-8.961l-0.756-0.504C241.376,45.42,239.402,47.546,235.761,47.546z"/>
	<path d="M302.89,47.533c-5.514,0-8.143-5.677-8.143-10.732c0-4.714,2.422-7.445,5.355-7.445c3.6,0,5.166,2.785,5.166,5.923h-8.346
		l1.125,1.522h12.379c0-5.468-3.434-9.269-8.654-9.269c-7.178,0-10.475,5.87-10.475,12.407c0,6.935,4.358,11.645,9.875,11.645
		c5.112,0,8.393-4.306,9.254-8.962l-0.76-0.506C308.511,45.407,306.535,47.533,302.89,47.533z"/>
</g>
<g>
	<path d="M61.222,67.919h-1.166v-0.421h2.832v0.421h-1.166v3.402h-0.5V67.919z"/>
	<path d="M66.523,69.643c-0.028-0.531-0.062-1.178-0.062-1.651h-0.012c-0.137,0.443-0.288,0.924-0.481,1.452l-0.674,1.855h-0.373
		l-0.627-1.821c-0.181-0.544-0.328-1.031-0.436-1.486h-0.009c-0.013,0.477-0.042,1.114-0.076,1.689l-0.104,1.64h-0.467l0.265-3.823
		h0.628l0.653,1.85c0.157,0.471,0.282,0.89,0.386,1.287h0.009c0.104-0.386,0.24-0.805,0.409-1.287l0.679-1.85h0.63l0.24,3.823
		h-0.488L66.523,69.643z"/>
</g>
<path d="M94.319,31.996c1.654-1.66,2.632-2.614,2.929-2.862c0.743-0.632,1.546-1.121,2.406-1.469
	c0.861-0.35,1.714-0.522,2.557-0.522c1.424,0,2.647,0.415,3.675,1.244c1.025,0.831,1.713,2.033,2.06,3.609
	c1.699-1.991,3.133-3.297,4.305-3.92c1.169-0.623,2.373-0.934,3.611-0.934c1.204,0,2.271,0.31,3.203,0.93
	c0.931,0.62,1.669,1.635,2.214,3.04c0.362,0.96,0.544,2.466,0.544,4.517v9.776c0,1.417,0.108,2.388,0.322,2.914
	c0.167,0.362,0.472,0.672,0.92,0.927c0.447,0.255,1.176,0.382,2.188,0.382v0.902h-11.226v-0.902h0.472
	c0.979,0,1.742-0.188,2.289-0.568c0.382-0.262,0.654-0.683,0.821-1.259c0.065-0.279,0.1-1.077,0.1-2.396v-9.766
	c0-1.85-0.223-3.156-0.668-3.916c-0.642-1.057-1.671-1.586-3.087-1.586c-0.875,0-1.751,0.219-2.633,0.657
	c-0.88,0.437-1.946,1.252-3.199,2.44l-0.05,0.272l0.037,1.065v10.832c0,1.548,0.086,2.512,0.258,2.89
	c0.175,0.38,0.499,0.696,0.977,0.951s1.294,0.382,2.447,0.382v0.902H100.31v-0.902c1.251,0,2.112-0.147,2.581-0.443
	c0.47-0.296,0.795-0.741,0.978-1.333c0.082-0.28,0.124-1.096,0.124-2.446v-9.766c0-1.851-0.273-3.185-0.818-4.005
	c-0.726-1.07-1.739-1.604-3.042-1.604c-0.892,0-1.772,0.241-2.647,0.726c-1.37,0.735-2.425,1.562-3.167,2.479v12.17
	c0,1.482,0.102,2.446,0.308,2.89c0.206,0.445,0.511,0.778,0.914,1c0.404,0.224,1.224,0.333,2.459,0.333v0.902H86.74v-0.902
	c1.046,0,1.776-0.109,2.192-0.333c0.416-0.222,0.731-0.575,0.948-1.062c0.215-0.486,0.323-1.428,0.323-2.828v-8.698
	c0-2.488-0.073-4.095-0.223-4.821c-0.116-0.543-0.3-0.918-0.547-1.125c-0.249-0.206-0.589-0.31-1.02-0.31
	c-0.463,0-1.018,0.124-1.665,0.372l-0.373-0.902l6.871-2.778h1.071V31.996z"/>
<path d="M123.197,27.791h10.622v0.902h-0.521c-0.743,0-1.304,0.163-1.675,0.486c-0.372,0.324-0.558,0.728-0.558,1.209
	c0,0.647,0.273,1.545,0.819,2.69l5.548,11.51l5.062-12.602c0.282-0.682,0.424-1.355,0.424-2.021c0-0.298-0.059-0.522-0.175-0.673
	c-0.133-0.183-0.34-0.328-0.621-0.437c-0.28-0.108-0.778-0.163-1.488-0.163v-0.902h7.383v0.902
	c-0.612,0.067-1.084,0.199-1.414,0.398c-0.331,0.198-0.696,0.572-1.093,1.118c-0.149,0.232-0.43,0.871-0.843,1.914l-9.236,22.702
	c-0.896,2.199-2.066,3.863-3.516,4.99c-1.449,1.124-2.844,1.687-4.186,1.687c-0.978,0-1.779-0.282-2.41-0.844
	c-0.63-0.563-0.943-1.209-0.943-1.936c0-0.696,0.228-1.256,0.683-1.676c0.455-0.423,1.081-0.634,1.878-0.634
	c0.545,0,1.292,0.179,2.236,0.537c0.662,0.243,1.077,0.365,1.243,0.365c0.497,0,1.038-0.255,1.626-0.766
	c0.587-0.511,1.179-1.5,1.774-2.967l1.597-3.973l-8.172-17.117c-0.249-0.518-0.646-1.158-1.191-1.925
	c-0.415-0.583-0.753-0.976-1.019-1.177c-0.38-0.265-0.992-0.498-1.836-0.699V27.791z"/>
<path d="M315.681,46.091c0.713,0,1.316,0.243,1.805,0.732c0.488,0.487,0.733,1.081,0.733,1.775c0,0.696-0.249,1.288-0.746,1.776
	c-0.5,0.488-1.096,0.732-1.792,0.732c-0.699,0-1.291-0.244-1.779-0.732c-0.49-0.488-0.734-1.08-0.734-1.776
	c0-0.694,0.244-1.288,0.734-1.775C314.39,46.334,314.981,46.091,315.681,46.091z"/>
<path d="M338.919,45.098c-1.717,2.068-3.449,3.587-5.199,4.556c-1.747,0.97-3.594,1.454-5.543,1.454
	c-2.342,0-4.171-0.661-5.482-1.982c-1.312-1.322-1.967-3.099-1.967-5.33c0-2.527,0.707-5.016,2.117-7.461
	c1.411-2.445,3.312-4.433,5.699-5.962c2.387-1.527,4.725-2.293,7.021-2.293c1.803,0,3.145,0.377,4.037,1.128
	c0.891,0.753,1.338,1.674,1.338,2.765c0,1.025-0.313,1.901-0.942,2.627c-0.466,0.563-1.033,0.845-1.712,0.845
	c-0.51,0-0.938-0.166-1.275-0.496c-0.338-0.33-0.509-0.743-0.509-1.239c0-0.313,0.062-0.602,0.183-0.866
	c0.125-0.264,0.379-0.582,0.764-0.954c0.383-0.372,0.617-0.641,0.699-0.806c0.08-0.164,0.125-0.339,0.125-0.521
	c0-0.346-0.158-0.636-0.475-0.866c-0.482-0.331-1.162-0.496-2.042-0.496c-1.625,0-3.237,0.571-4.829,1.71
	c-1.592,1.14-2.953,2.758-4.079,4.854c-1.362,2.545-2.042,5.088-2.042,7.632c0,1.685,0.483,3.018,1.446,4
	c0.962,0.983,2.271,1.475,3.933,1.475c1.279,0,2.539-0.317,3.797-0.955c1.25-0.637,2.658-1.79,4.217-3.461L338.919,45.098z"/>
<path d="M362.833,35.838c0,2.479-0.66,4.933-1.977,7.363c-1.312,2.429-3.146,4.354-5.496,5.774c-2.35,1.422-4.634,2.132-6.85,2.132
	c-2.268,0-4.117-0.724-5.547-2.169c-1.433-1.446-2.149-3.317-2.149-5.613c0-2.431,0.7-4.867,2.097-7.314
	c1.399-2.445,3.27-4.378,5.611-5.8c2.342-1.421,4.604-2.132,6.791-2.132c2.18,0,3.98,0.721,5.396,2.157
	C362.126,31.675,362.833,33.542,362.833,35.838z M358.753,34.139c0-1.536-0.376-2.713-1.131-3.533
	c-0.754-0.818-1.729-1.227-2.924-1.227c-2.438,0-4.684,1.739-6.73,5.218c-2.049,3.479-3.074,6.938-3.074,10.375
	c0,1.57,0.4,2.781,1.196,3.632c0.796,0.852,1.796,1.277,3.009,1.277c2.34,0,4.533-1.731,6.582-5.194
	C357.731,41.224,358.753,37.709,358.753,34.139z"/>
<path d="M374.577,28.08l-3.25,11.193c1.475-2.63,2.725-4.606,3.758-5.932c1.604-2.051,3.171-3.54,4.695-4.468
	c0.896-0.529,1.834-0.794,2.814-0.794c0.846,0,1.549,0.273,2.107,0.819s0.84,1.246,0.84,2.101c0,0.803-0.207,1.85-0.615,3.145
	l-1.879,6.239c2.854-5.044,5.566-8.582,8.125-10.615c1.42-1.126,2.82-1.688,4.208-1.688c0.805,0,1.464,0.284,1.983,0.854
	c0.518,0.568,0.775,1.447,0.775,2.637c0,0.951-0.17,1.959-0.509,3.023l-3.104,9.564c-0.68,2.083-1.017,3.239-1.017,3.468
	c0,0.22,0.066,0.41,0.199,0.567c0.084,0.111,0.201,0.167,0.35,0.167c0.143,0,0.398-0.15,0.764-0.451
	c0.829-0.718,1.611-1.673,2.338-2.864l0.82,0.52c-0.396,0.664-1.092,1.555-2.096,2.676c-1,1.122-1.855,1.88-2.566,2.274
	c-0.709,0.396-1.363,0.593-1.963,0.593c-0.555,0-1.014-0.196-1.384-0.59c-0.371-0.395-0.556-0.878-0.556-1.451
	c0-0.794,0.393-2.39,1.177-4.787l2.612-7.959c0.592-1.834,0.908-2.852,0.945-3.05c0.059-0.314,0.088-0.62,0.088-0.917
	c0-0.413-0.1-0.735-0.296-0.967c-0.216-0.231-0.458-0.348-0.725-0.348c-0.75,0-1.546,0.356-2.386,1.067
	c-2.469,2.099-4.773,5.042-6.922,8.828c-1.409,2.496-2.73,5.694-3.967,9.596h-3.764l4.525-15.001
	c0.492-1.619,0.738-2.701,0.738-3.248c0-0.444-0.092-0.776-0.277-0.99s-0.416-0.323-0.686-0.323c-0.562,0-1.154,0.199-1.783,0.596
	c-1.014,0.646-2.322,2.024-3.926,4.141c-1.6,2.115-2.846,4.141-3.725,6.073c-0.426,0.91-1.434,3.828-3.029,8.753h-3.676
	l4.631-16.072l0.604-2.082c0.116-0.32,0.175-0.555,0.175-0.707c0-0.37-0.167-0.701-0.499-0.993c-0.334-0.292-0.76-0.438-1.271-0.438
	c-0.217,0-0.817,0.099-1.801,0.298l-0.213-0.902L374.577,28.08z"/>
<g>
	<path d="M230.484,88.954h3.355c0.882,0,1.538,0.19,1.974,0.569c0.437,0.379,0.655,0.842,0.655,1.387
		c0,0.432-0.139,0.852-0.416,1.258c-0.276,0.407-0.688,0.737-1.233,0.99c-0.546,0.255-1.134,0.382-1.768,0.382
		c-0.396,0-0.896-0.07-1.504-0.21l-0.707,2.453c-0.156,0.508-0.238,0.842-0.238,1.004c0,0.125,0.057,0.226,0.171,0.307
		c0.112,0.081,0.384,0.132,0.812,0.155l-0.066,0.229h-3.346l0.068-0.229c0.444,0,0.756-0.076,0.928-0.23
		c0.175-0.152,0.361-0.577,0.562-1.269l1.399-4.857c0.167-0.583,0.25-0.973,0.25-1.17c0-0.146-0.059-0.268-0.179-0.364
		c-0.119-0.097-0.384-0.156-0.79-0.176L230.484,88.954z M231.661,92.936c0.47,0.116,0.842,0.175,1.129,0.175
		c0.449,0,0.859-0.094,1.229-0.283c0.369-0.188,0.658-0.47,0.866-0.848c0.207-0.377,0.312-0.769,0.312-1.175
		c0-0.423-0.13-0.76-0.382-1.005c-0.256-0.247-0.64-0.371-1.16-0.371c-0.277,0-0.616,0.036-1.013,0.107L231.661,92.936z"/>
	<path d="M242.224,93.759c0,0.627-0.167,1.249-0.499,1.864c-0.332,0.616-0.797,1.103-1.394,1.462
		c-0.595,0.361-1.171,0.54-1.733,0.54c-0.574,0-1.042-0.183-1.404-0.549c-0.363-0.367-0.541-0.84-0.541-1.421
		c0-0.615,0.175-1.231,0.528-1.852c0.354-0.618,0.826-1.108,1.418-1.467c0.595-0.36,1.169-0.54,1.721-0.54
		c0.554,0,1.009,0.183,1.369,0.546C242.047,92.705,242.224,93.177,242.224,93.759z M241.189,93.33c0-0.391-0.092-0.688-0.286-0.896
		c-0.189-0.207-0.436-0.311-0.741-0.311c-0.614,0-1.184,0.44-1.702,1.32c-0.517,0.88-0.779,1.758-0.779,2.628
		c0,0.397,0.104,0.703,0.305,0.918c0.2,0.216,0.455,0.323,0.763,0.323c0.591,0,1.146-0.438,1.666-1.313
		C240.935,95.123,241.189,94.233,241.189,93.33z"/>
	<path d="M248.032,91.795l0.433,4.71c0.732-0.854,1.315-1.656,1.75-2.406c0.258-0.44,0.384-0.758,0.384-0.953
		c0-0.093-0.021-0.176-0.063-0.246c-0.017-0.039-0.083-0.093-0.198-0.167c-0.114-0.073-0.196-0.148-0.242-0.226
		c-0.045-0.077-0.067-0.161-0.067-0.249c0-0.129,0.049-0.24,0.145-0.329c0.094-0.09,0.221-0.136,0.371-0.136
		c0.173,0,0.317,0.065,0.438,0.192c0.117,0.128,0.178,0.298,0.178,0.51c0,0.218-0.032,0.422-0.094,0.611
		c-0.126,0.358-0.372,0.822-0.738,1.393c-0.445,0.682-0.903,1.314-1.375,1.897c-0.474,0.584-0.824,0.992-1.055,1.227h-0.229
		l-0.412-4.34l-2.594,4.34h-0.273c-0.029-1.785-0.121-3.192-0.271-4.226c-0.062-0.43-0.166-0.712-0.312-0.846
		c-0.106-0.098-0.266-0.145-0.479-0.145c-0.121,0-0.275,0.013-0.463,0.038v-0.229l1.803-0.42c0.252,0.699,0.417,1.773,0.489,3.222
		c0.024,0.549,0.046,0.895,0.062,1.037l2.579-4.258H248.032z"/>
	<path d="M252.631,95.112c-0.023,0.209-0.037,0.381-0.037,0.518c0,0.372,0.135,0.688,0.404,0.948c0.267,0.259,0.593,0.39,0.976,0.39
		c0.308,0,0.604-0.062,0.886-0.184c0.284-0.124,0.705-0.395,1.261-0.816l0.132,0.181c-0.991,0.984-1.94,1.476-2.841,1.476
		c-0.609,0-1.076-0.193-1.385-0.576c-0.308-0.385-0.466-0.809-0.466-1.274c0-0.623,0.195-1.262,0.578-1.914
		c0.389-0.651,0.871-1.159,1.455-1.522c0.58-0.361,1.18-0.542,1.796-0.542c0.445,0,0.772,0.09,0.987,0.271
		c0.213,0.179,0.321,0.394,0.321,0.641c0,0.347-0.141,0.679-0.421,0.999c-0.371,0.414-0.917,0.749-1.638,1.004
		C254.164,94.881,253.493,95.016,252.631,95.112z M252.675,94.801c0.636-0.071,1.149-0.192,1.548-0.363
		c0.525-0.23,0.921-0.508,1.185-0.827c0.262-0.321,0.395-0.625,0.395-0.916c0-0.174-0.057-0.317-0.17-0.427
		c-0.113-0.108-0.276-0.162-0.484-0.162c-0.438,0-0.899,0.228-1.391,0.681C253.269,93.242,252.906,93.914,252.675,94.801z"/>
	<path d="M257.438,92.142l2.152-0.347l-0.873,3.052c0.735-1.253,1.408-2.127,2.011-2.626c0.344-0.284,0.62-0.426,0.836-0.426
		c0.139,0,0.249,0.042,0.329,0.124c0.08,0.08,0.121,0.199,0.121,0.355c0,0.276-0.074,0.54-0.216,0.792
		c-0.101,0.189-0.243,0.282-0.431,0.282c-0.1,0-0.182-0.03-0.25-0.093c-0.07-0.064-0.112-0.161-0.129-0.292
		c-0.009-0.08-0.027-0.131-0.058-0.158c-0.034-0.034-0.072-0.051-0.12-0.051c-0.07,0-0.138,0.017-0.2,0.051
		c-0.108,0.058-0.276,0.223-0.497,0.49c-0.347,0.411-0.725,0.941-1.133,1.595c-0.174,0.276-0.325,0.587-0.45,0.936
		c-0.176,0.477-0.277,0.764-0.303,0.861l-0.2,0.792h-0.956l1.123-3.902c0.135-0.452,0.2-0.777,0.2-0.971
		c0-0.077-0.029-0.14-0.093-0.191c-0.084-0.067-0.191-0.1-0.32-0.1c-0.081,0-0.234,0.02-0.452,0.057L257.438,92.142z"/>
	<path d="M262.741,95.112c-0.022,0.209-0.036,0.381-0.036,0.518c0,0.372,0.132,0.688,0.404,0.948c0.268,0.259,0.593,0.39,0.975,0.39
		c0.306,0,0.602-0.062,0.885-0.184c0.285-0.124,0.704-0.395,1.264-0.816l0.13,0.181c-0.994,0.984-1.939,1.476-2.844,1.476
		c-0.608,0-1.071-0.193-1.383-0.576c-0.308-0.385-0.463-0.809-0.463-1.274c0-0.623,0.193-1.262,0.575-1.914
		c0.388-0.651,0.872-1.159,1.455-1.522c0.582-0.361,1.18-0.542,1.799-0.542c0.441,0,0.771,0.09,0.983,0.271
		c0.217,0.179,0.321,0.394,0.321,0.641c0,0.347-0.138,0.679-0.421,0.999c-0.37,0.414-0.914,0.749-1.634,1.004
		C264.273,94.881,263.606,95.016,262.741,95.112z M262.785,94.801c0.634-0.071,1.149-0.192,1.55-0.363
		c0.524-0.23,0.919-0.508,1.183-0.827c0.263-0.321,0.395-0.625,0.395-0.916c0-0.174-0.057-0.317-0.169-0.427
		c-0.112-0.108-0.277-0.162-0.486-0.162c-0.437,0-0.899,0.228-1.389,0.681C263.378,93.242,263.016,93.914,262.785,94.801z"/>
	<path d="M274.302,88.478l-2.208,7.569c-0.117,0.411-0.176,0.68-0.176,0.808c0,0.037,0.009,0.072,0.033,0.105
		c0.022,0.033,0.05,0.049,0.071,0.049c0.035,0,0.08-0.024,0.129-0.073c0.096-0.092,0.251-0.339,0.475-0.741l0.213,0.132
		c-0.245,0.41-0.491,0.729-0.74,0.955c-0.249,0.227-0.483,0.341-0.7,0.341c-0.113,0-0.216-0.05-0.304-0.15
		c-0.085-0.102-0.126-0.242-0.126-0.425c0-0.238,0.062-0.558,0.188-0.958l0.249-0.798c-0.674,0.943-1.285,1.596-1.837,1.959
		c-0.379,0.248-0.742,0.373-1.09,0.373c-0.354,0-0.66-0.14-0.919-0.423c-0.266-0.283-0.396-0.665-0.396-1.15
		c0-0.623,0.217-1.29,0.646-1.996c0.435-0.708,1.003-1.283,1.713-1.726c0.558-0.356,1.073-0.533,1.538-0.533
		c0.245,0,0.457,0.047,0.633,0.138c0.183,0.093,0.354,0.245,0.527,0.458l0.597-2.077c0.066-0.233,0.121-0.419,0.163-0.557
		c0.05-0.169,0.074-0.308,0.074-0.418c0-0.088-0.032-0.161-0.092-0.221c-0.089-0.072-0.202-0.107-0.338-0.107
		c-0.099,0-0.257,0.013-0.478,0.043v-0.229L274.302,88.478z M271.879,92.999c0-0.268-0.085-0.484-0.256-0.647
		c-0.175-0.164-0.391-0.245-0.654-0.245c-0.584,0-1.191,0.436-1.824,1.307c-0.633,0.872-0.949,1.708-0.949,2.503
		c0,0.313,0.082,0.554,0.243,0.72c0.163,0.165,0.355,0.249,0.58,0.249c0.509,0,1.112-0.472,1.812-1.415
		C271.53,94.527,271.879,93.704,271.879,92.999z"/>
	<path d="M280.302,88.524l-1.25,4.359c0.389-0.417,0.726-0.703,1.013-0.856c0.287-0.155,0.591-0.232,0.904-0.232
		c0.441,0,0.802,0.152,1.087,0.459c0.283,0.305,0.421,0.718,0.421,1.242c0,0.673-0.188,1.342-0.562,2.01
		c-0.372,0.668-0.846,1.188-1.41,1.56c-0.564,0.373-1.127,0.558-1.673,0.558c-0.615,0-1.246-0.236-1.896-0.712l1.907-6.598
		c0.144-0.507,0.218-0.804,0.218-0.892c0-0.108-0.033-0.19-0.101-0.244c-0.098-0.077-0.241-0.114-0.429-0.114
		c-0.088,0-0.221,0.015-0.404,0.044v-0.237L280.302,88.524z M277.864,96.982c0.404,0.235,0.756,0.349,1.062,0.349
		c0.358,0,0.726-0.133,1.104-0.404c0.383-0.269,0.712-0.724,0.991-1.366c0.28-0.641,0.422-1.288,0.422-1.94
		c0-0.386-0.089-0.688-0.274-0.906c-0.18-0.218-0.396-0.327-0.642-0.327c-0.371,0-0.734,0.164-1.09,0.489
		c-0.354,0.325-0.614,0.766-0.774,1.322L277.864,96.982z"/>
	<path d="M284.857,91.795c0.141,0.243,0.24,0.469,0.295,0.68c0.054,0.213,0.108,0.626,0.163,1.245l0.277,3.084
		c0.252-0.302,0.616-0.779,1.093-1.43c0.231-0.317,0.513-0.75,0.852-1.296c0.206-0.335,0.333-0.569,0.377-0.702
		c0.026-0.068,0.038-0.137,0.038-0.208c0-0.045-0.014-0.083-0.042-0.113c-0.029-0.029-0.107-0.064-0.229-0.104
		c-0.125-0.039-0.229-0.111-0.312-0.218c-0.081-0.106-0.121-0.229-0.121-0.367c0-0.171,0.05-0.309,0.15-0.413
		c0.101-0.105,0.229-0.157,0.376-0.157c0.187,0,0.345,0.076,0.474,0.229c0.134,0.152,0.196,0.363,0.196,0.631
		c0,0.332-0.113,0.708-0.34,1.133s-0.662,1.078-1.306,1.957c-0.646,0.878-1.425,1.838-2.342,2.876
		c-0.633,0.716-1.101,1.167-1.408,1.355c-0.305,0.187-0.565,0.279-0.784,0.279c-0.129,0-0.245-0.05-0.344-0.147
		c-0.097-0.1-0.149-0.213-0.149-0.346c0-0.163,0.07-0.313,0.207-0.446c0.137-0.136,0.282-0.203,0.444-0.203
		c0.081,0,0.151,0.019,0.207,0.057c0.032,0.021,0.069,0.082,0.11,0.179c0.038,0.099,0.075,0.165,0.108,0.198
		c0.019,0.022,0.046,0.033,0.075,0.033c0.025,0,0.068-0.021,0.133-0.063c0.229-0.142,0.498-0.369,0.804-0.679
		c0.397-0.411,0.696-0.75,0.893-1.018l-0.354-3.968c-0.058-0.655-0.146-1.054-0.262-1.196c-0.117-0.142-0.315-0.212-0.594-0.212
		c-0.087,0-0.244,0.012-0.472,0.039l-0.056-0.23L284.857,91.795z"/>
	<path d="M293.395,88.954h6.551l-0.7,2.265h-0.227c0.075-0.331,0.112-0.626,0.112-0.887c0-0.305-0.094-0.537-0.279-0.691
		c-0.142-0.118-0.506-0.177-1.091-0.177h-0.691l-1.707,6.021c-0.214,0.682-0.321,1.101-0.321,1.259c0,0.148,0.069,0.269,0.2,0.364
		c0.136,0.094,0.371,0.142,0.711,0.142h0.288l-0.071,0.229h-3.663l0.067-0.229h0.162c0.328,0,0.578-0.052,0.755-0.157
		c0.122-0.072,0.232-0.201,0.328-0.388c0.101-0.188,0.237-0.582,0.413-1.187l1.746-6.054h-0.491c-0.51,0-0.922,0.062-1.233,0.189
		c-0.312,0.125-0.563,0.308-0.755,0.546c-0.192,0.239-0.351,0.579-0.472,1.019h-0.229L293.395,88.954z"/>
	<path d="M302.456,88.542l-1.771,6.144c0.822-1.163,1.459-1.936,1.921-2.318c0.459-0.381,0.898-0.573,1.316-0.573
		c0.218,0,0.396,0.076,0.54,0.228c0.146,0.153,0.217,0.355,0.217,0.608c0,0.272-0.066,0.605-0.197,0.994l-0.865,2.605
		c-0.11,0.315-0.163,0.489-0.163,0.521c0,0.057,0.016,0.103,0.049,0.14c0.029,0.036,0.066,0.054,0.108,0.054
		c0.048,0,0.104-0.027,0.167-0.078c0.216-0.181,0.425-0.436,0.633-0.763l0.193,0.12c-0.135,0.223-0.323,0.463-0.564,0.72
		c-0.241,0.257-0.448,0.435-0.623,0.533c-0.175,0.099-0.327,0.147-0.464,0.147c-0.149,0-0.27-0.048-0.362-0.146
		c-0.095-0.097-0.142-0.222-0.142-0.376c0-0.186,0.083-0.527,0.253-1.029l0.822-2.51c0.105-0.314,0.162-0.562,0.162-0.742
		c0-0.083-0.03-0.15-0.09-0.201c-0.055-0.05-0.13-0.076-0.22-0.076c-0.136,0-0.287,0.047-0.458,0.138
		c-0.312,0.175-0.673,0.5-1.083,0.977c-0.11,0.129-0.478,0.652-1.104,1.565c-0.193,0.293-0.345,0.612-0.457,0.959l-0.392,1.294
		h-0.933l2.073-7.19l0.219-0.776c0-0.11-0.043-0.205-0.134-0.288c-0.089-0.083-0.199-0.125-0.33-0.125
		c-0.075,0-0.188,0.011-0.343,0.037l-0.133,0.018v-0.246L302.456,88.542z"/>
	<path d="M306.532,95.112c-0.021,0.209-0.034,0.381-0.034,0.518c0,0.372,0.133,0.688,0.4,0.948c0.271,0.259,0.595,0.39,0.979,0.39
		c0.309,0,0.604-0.062,0.884-0.184c0.284-0.124,0.707-0.395,1.264-0.816l0.129,0.181c-0.992,0.984-1.938,1.476-2.842,1.476
		c-0.609,0-1.071-0.193-1.381-0.576c-0.311-0.385-0.466-0.809-0.466-1.274c0-0.623,0.195-1.262,0.577-1.914
		c0.387-0.651,0.869-1.159,1.452-1.522c0.583-0.361,1.183-0.542,1.799-0.542c0.444,0,0.772,0.09,0.987,0.271
		c0.213,0.179,0.318,0.394,0.318,0.641c0,0.347-0.139,0.679-0.421,0.999c-0.371,0.414-0.917,0.749-1.634,1.004
		C308.066,94.881,307.397,95.016,306.532,95.112z M306.578,94.801c0.633-0.071,1.149-0.192,1.548-0.363
		c0.525-0.23,0.921-0.508,1.184-0.827c0.264-0.321,0.396-0.625,0.396-0.916c0-0.174-0.058-0.317-0.173-0.427
		c-0.11-0.108-0.275-0.162-0.482-0.162c-0.438,0-0.897,0.228-1.39,0.681C307.169,93.242,306.811,93.914,306.578,94.801z"/>
	<path d="M319.179,97.478l-1.355-4.138c-0.313,0.004-0.634-0.027-0.961-0.095l-0.77,2.703c-0.098,0.305-0.146,0.564-0.146,0.775
		c0,0.161,0.061,0.288,0.181,0.378c0.092,0.068,0.343,0.119,0.754,0.149l-0.055,0.229h-3.262l0.069-0.229
		c0.311-0.012,0.519-0.042,0.63-0.094c0.171-0.072,0.296-0.167,0.375-0.29c0.134-0.198,0.277-0.546,0.421-1.047l1.483-5.153
		c0.102-0.343,0.151-0.61,0.151-0.799c0-0.192-0.08-0.355-0.235-0.49c-0.156-0.135-0.383-0.199-0.677-0.195l0.077-0.228h2.776
		c0.928,0,1.6,0.176,2.011,0.526c0.408,0.353,0.613,0.817,0.613,1.391c0,0.55-0.211,1.051-0.634,1.506
		c-0.421,0.455-0.998,0.742-1.734,0.865l0.815,2.495c0.2,0.614,0.402,1.012,0.603,1.197c0.201,0.186,0.529,0.291,0.975,0.315
		l-0.07,0.229H319.179z M316.974,92.89c0.267,0.038,0.503,0.057,0.707,0.057c0.713,0,1.275-0.202,1.689-0.603
		c0.415-0.402,0.62-0.9,0.62-1.499c0-0.468-0.13-0.824-0.388-1.072c-0.259-0.249-0.65-0.372-1.167-0.372
		c-0.133,0-0.292,0.017-0.474,0.05L316.974,92.89z"/>
	<path d="M323.127,95.112c-0.025,0.209-0.038,0.381-0.038,0.518c0,0.372,0.134,0.688,0.4,0.948c0.271,0.259,0.596,0.39,0.979,0.39
		c0.308,0,0.604-0.062,0.885-0.184c0.283-0.124,0.704-0.395,1.263-0.816l0.132,0.181c-0.994,0.984-1.942,1.476-2.842,1.476
		c-0.611,0-1.075-0.193-1.384-0.576c-0.311-0.385-0.467-0.809-0.467-1.274c0-0.623,0.195-1.262,0.579-1.914
		c0.386-0.651,0.869-1.159,1.45-1.522c0.584-0.361,1.184-0.542,1.798-0.542c0.445,0,0.774,0.09,0.987,0.271
		c0.214,0.179,0.323,0.394,0.323,0.641c0,0.347-0.142,0.679-0.425,0.999c-0.367,0.414-0.912,0.749-1.632,1.004
		C324.66,94.881,323.987,95.016,323.127,95.112z M323.169,94.801c0.633-0.071,1.151-0.192,1.549-0.363
		c0.525-0.23,0.919-0.508,1.185-0.827c0.262-0.321,0.395-0.625,0.395-0.916c0-0.174-0.058-0.317-0.171-0.427
		c-0.111-0.108-0.273-0.162-0.485-0.162c-0.435,0-0.9,0.228-1.389,0.681C323.761,93.242,323.401,93.914,323.169,94.801z"/>
	<path d="M334.007,92.188l-0.181,0.649h-1.048c0.078,0.227,0.115,0.438,0.115,0.635c0,0.554-0.237,1.048-0.709,1.48
		c-0.479,0.431-1.135,0.67-1.966,0.717c-0.434,0.134-0.758,0.292-0.975,0.476c-0.084,0.067-0.126,0.136-0.126,0.208
		c0,0.084,0.038,0.16,0.116,0.228c0.072,0.069,0.264,0.14,0.567,0.211l1.218,0.28c0.672,0.157,1.12,0.344,1.334,0.562
		c0.215,0.223,0.321,0.478,0.321,0.768c0,0.343-0.127,0.657-0.381,0.942c-0.251,0.287-0.625,0.508-1.112,0.669
		c-0.487,0.163-1.025,0.243-1.617,0.243c-0.518,0-0.991-0.061-1.417-0.185c-0.427-0.123-0.733-0.29-0.916-0.498
		c-0.185-0.209-0.278-0.424-0.278-0.647c0-0.181,0.062-0.367,0.18-0.562c0.121-0.194,0.272-0.354,0.452-0.48
		c0.112-0.08,0.435-0.268,0.964-0.564c-0.191-0.151-0.288-0.317-0.288-0.496c0-0.167,0.08-0.346,0.245-0.534
		c0.162-0.188,0.509-0.396,1.038-0.621c-0.448-0.088-0.801-0.28-1.065-0.579c-0.26-0.296-0.392-0.628-0.392-0.994
		c0-0.594,0.262-1.128,0.786-1.596c0.524-0.471,1.222-0.706,2.092-0.706c0.317,0,0.574,0.032,0.776,0.095
		c0.203,0.063,0.398,0.162,0.587,0.299H334.007z M328.818,97.483c-0.34,0.154-0.598,0.352-0.771,0.595
		c-0.175,0.241-0.263,0.479-0.263,0.713c0,0.276,0.125,0.503,0.376,0.683c0.361,0.259,0.889,0.388,1.582,0.388
		c0.598,0,1.108-0.101,1.537-0.303c0.423-0.203,0.634-0.465,0.634-0.787c0-0.162-0.078-0.317-0.233-0.464
		c-0.158-0.146-0.458-0.264-0.912-0.356C330.522,97.903,329.872,97.746,328.818,97.483z M331.859,93.168
		c0-0.335-0.098-0.598-0.29-0.792c-0.192-0.192-0.444-0.289-0.756-0.289c-0.491,0-0.895,0.237-1.216,0.713
		c-0.319,0.476-0.479,0.971-0.479,1.486c0,0.322,0.104,0.586,0.307,0.792c0.203,0.206,0.452,0.309,0.744,0.309
		c0.229,0,0.45-0.061,0.666-0.183c0.214-0.121,0.396-0.288,0.546-0.502c0.146-0.213,0.263-0.486,0.35-0.816
		C331.816,93.553,331.859,93.314,331.859,93.168z"/>
	<path d="M335.14,95.112c-0.024,0.209-0.036,0.381-0.036,0.518c0,0.372,0.133,0.688,0.402,0.948c0.269,0.259,0.594,0.39,0.976,0.39
		c0.31,0,0.604-0.062,0.887-0.184c0.283-0.124,0.705-0.395,1.263-0.816l0.131,0.181c-0.993,0.984-1.941,1.476-2.843,1.476
		c-0.612,0-1.073-0.193-1.383-0.576c-0.31-0.385-0.466-0.809-0.466-1.274c0-0.623,0.193-1.262,0.577-1.914
		c0.388-0.651,0.871-1.159,1.454-1.522c0.581-0.361,1.18-0.542,1.796-0.542c0.446,0,0.774,0.09,0.988,0.271
		c0.214,0.179,0.32,0.394,0.32,0.641c0,0.347-0.141,0.679-0.424,0.999c-0.368,0.414-0.91,0.749-1.633,1.004
		C336.674,94.881,336.002,95.016,335.14,95.112z M335.185,94.801c0.632-0.071,1.15-0.192,1.547-0.363
		c0.525-0.23,0.921-0.508,1.186-0.827c0.262-0.321,0.394-0.625,0.394-0.916c0-0.174-0.059-0.317-0.17-0.427
		c-0.113-0.108-0.276-0.162-0.485-0.162c-0.437,0-0.901,0.228-1.39,0.681C335.776,93.242,335.418,93.914,335.185,94.801z"/>
	<path d="M342.132,91.795l-0.821,2.847c0.842-1.163,1.487-1.929,1.933-2.296c0.45-0.368,0.877-0.551,1.294-0.551
		c0.225,0,0.412,0.076,0.556,0.228c0.146,0.153,0.219,0.352,0.219,0.596c0,0.249-0.064,0.58-0.204,0.995l-0.864,2.619
		c-0.103,0.304-0.15,0.487-0.15,0.554c0,0.056,0.014,0.102,0.046,0.141c0.028,0.039,0.059,0.058,0.093,0.058
		c0.042,0,0.096-0.028,0.158-0.08c0.197-0.171,0.41-0.436,0.646-0.799l0.192,0.122c-0.371,0.547-0.722,0.936-1.055,1.163
		c-0.229,0.156-0.438,0.233-0.621,0.233c-0.148,0-0.265-0.046-0.35-0.139c-0.09-0.095-0.134-0.22-0.134-0.377
		c0-0.202,0.081-0.547,0.245-1.037l0.835-2.527c0.107-0.312,0.158-0.559,0.158-0.735c0-0.084-0.029-0.152-0.089-0.204
		c-0.061-0.052-0.131-0.079-0.218-0.079c-0.128,0-0.281,0.05-0.459,0.152c-0.336,0.188-0.686,0.498-1.052,0.932
		c-0.364,0.434-0.749,0.986-1.154,1.66c-0.213,0.356-0.392,0.746-0.529,1.168l-0.311,1.04h-0.935l1.134-3.928
		c0.134-0.473,0.203-0.756,0.203-0.852c0-0.092-0.037-0.172-0.112-0.241c-0.07-0.069-0.162-0.104-0.267-0.104
		c-0.05,0-0.136,0.009-0.258,0.025l-0.233,0.038l-0.054-0.229L342.132,91.795z"/>
	<path d="M350.646,96.104c-0.432,0.523-0.873,0.908-1.315,1.153c-0.444,0.244-0.91,0.367-1.403,0.367
		c-0.594,0-1.055-0.167-1.388-0.502c-0.333-0.334-0.498-0.784-0.498-1.349c0-0.64,0.178-1.27,0.536-1.889
		c0.355-0.62,0.837-1.123,1.441-1.508c0.604-0.388,1.196-0.582,1.778-0.582c0.455,0,0.796,0.095,1.021,0.285
		c0.226,0.192,0.34,0.425,0.34,0.7c0,0.26-0.08,0.482-0.241,0.666c-0.117,0.143-0.261,0.214-0.433,0.214
		c-0.127,0-0.234-0.042-0.322-0.126c-0.085-0.083-0.129-0.188-0.129-0.314c0-0.08,0.016-0.152,0.048-0.219
		c0.03-0.068,0.094-0.146,0.191-0.241c0.097-0.095,0.156-0.163,0.177-0.206c0.021-0.041,0.031-0.084,0.031-0.131
		c0-0.087-0.041-0.161-0.119-0.219c-0.122-0.084-0.295-0.125-0.518-0.125c-0.411,0-0.816,0.144-1.221,0.433
		c-0.402,0.289-0.746,0.698-1.033,1.229c-0.346,0.644-0.517,1.288-0.517,1.932c0,0.428,0.122,0.765,0.366,1.014
		c0.241,0.248,0.576,0.373,0.996,0.373c0.321,0,0.642-0.081,0.958-0.242c0.32-0.161,0.677-0.453,1.068-0.877L350.646,96.104z"/>
	<path d="M352.802,95.112c-0.024,0.209-0.036,0.381-0.036,0.518c0,0.372,0.132,0.688,0.401,0.948c0.269,0.259,0.594,0.39,0.977,0.39
		c0.309,0,0.601-0.062,0.885-0.184c0.283-0.124,0.706-0.395,1.263-0.816l0.129,0.181c-0.992,0.984-1.938,1.476-2.839,1.476
		c-0.612,0-1.073-0.193-1.383-0.576c-0.312-0.385-0.467-0.809-0.467-1.274c0-0.623,0.191-1.262,0.579-1.914
		c0.385-0.651,0.868-1.159,1.45-1.522c0.583-0.361,1.184-0.542,1.799-0.542c0.444,0,0.773,0.09,0.987,0.271
		c0.214,0.179,0.319,0.394,0.319,0.641c0,0.347-0.14,0.679-0.422,0.999c-0.368,0.414-0.914,0.749-1.633,1.004
		C354.335,94.881,353.664,95.016,352.802,95.112z M352.845,94.801c0.633-0.071,1.15-0.192,1.549-0.363
		c0.525-0.23,0.921-0.508,1.181-0.827c0.267-0.321,0.396-0.625,0.396-0.916c0-0.174-0.056-0.317-0.17-0.427
		c-0.11-0.108-0.275-0.162-0.484-0.162c-0.435,0-0.896,0.228-1.389,0.681C353.436,93.242,353.077,93.914,352.845,94.801z"/>
	<path d="M364.267,89.41l-0.97,3.372h0.825c0.567,0,0.981-0.087,1.238-0.26c0.258-0.175,0.477-0.495,0.662-0.964h0.229l-0.879,3.089
		h-0.255c0.073-0.26,0.112-0.481,0.112-0.666c0-0.18-0.036-0.322-0.108-0.431c-0.074-0.109-0.174-0.189-0.303-0.243
		c-0.13-0.052-0.396-0.078-0.808-0.078h-0.83l-0.846,2.951c-0.076,0.237-0.117,0.417-0.117,0.542c0,0.093,0.054,0.178,0.158,0.25
		c0.072,0.05,0.254,0.076,0.55,0.076h0.774c0.817,0,1.472-0.144,1.963-0.432c0.492-0.289,0.934-0.791,1.321-1.505h0.235
		l-0.807,2.366h-6.573l0.082-0.229c0.325-0.008,0.547-0.037,0.658-0.088c0.169-0.077,0.291-0.171,0.366-0.29
		c0.112-0.173,0.247-0.533,0.4-1.083l1.481-5.148c0.118-0.415,0.177-0.73,0.177-0.949c0-0.16-0.057-0.285-0.166-0.375
		c-0.112-0.09-0.326-0.135-0.65-0.135h-0.13l0.072-0.228h6.129L367.731,91h-0.228c0.028-0.191,0.044-0.353,0.044-0.482
		c0-0.22-0.057-0.407-0.167-0.558c-0.141-0.19-0.35-0.337-0.625-0.437c-0.198-0.075-0.662-0.113-1.392-0.113H364.267z"/>
	<path d="M370.739,91.795l-0.821,2.847c0.84-1.163,1.485-1.929,1.931-2.296c0.45-0.368,0.879-0.551,1.292-0.551
		c0.228,0,0.411,0.076,0.558,0.228c0.146,0.153,0.221,0.352,0.221,0.596c0,0.249-0.07,0.58-0.204,0.995l-0.867,2.619
		c-0.1,0.304-0.149,0.487-0.149,0.554c0,0.056,0.017,0.102,0.045,0.141c0.03,0.039,0.06,0.058,0.093,0.058
		c0.045,0,0.099-0.028,0.161-0.08c0.194-0.171,0.409-0.436,0.643-0.799l0.194,0.122c-0.373,0.547-0.723,0.936-1.056,1.163
		c-0.229,0.156-0.435,0.233-0.621,0.233c-0.147,0-0.264-0.046-0.351-0.139c-0.089-0.095-0.13-0.22-0.13-0.377
		c0-0.202,0.079-0.547,0.243-1.037l0.834-2.527c0.106-0.312,0.158-0.559,0.158-0.735c0-0.084-0.027-0.152-0.088-0.204
		c-0.06-0.052-0.131-0.079-0.219-0.079c-0.128,0-0.278,0.05-0.458,0.152c-0.337,0.188-0.687,0.498-1.05,0.932
		c-0.366,0.434-0.75,0.986-1.156,1.66c-0.215,0.356-0.392,0.746-0.531,1.168l-0.309,1.04h-0.932l1.13-3.928
		c0.136-0.473,0.203-0.756,0.203-0.852c0-0.092-0.038-0.172-0.109-0.241c-0.075-0.069-0.165-0.104-0.271-0.104
		c-0.049,0-0.134,0.009-0.255,0.025l-0.233,0.038l-0.054-0.229L370.739,91.795z"/>
	<path d="M380.997,92.188l-0.182,0.649h-1.047c0.076,0.227,0.112,0.438,0.112,0.635c0,0.554-0.233,1.048-0.708,1.48
		c-0.479,0.431-1.134,0.67-1.965,0.717c-0.435,0.134-0.76,0.292-0.977,0.476c-0.083,0.067-0.124,0.136-0.124,0.208
		c0,0.084,0.037,0.16,0.115,0.228c0.072,0.069,0.263,0.14,0.566,0.211l1.222,0.28c0.67,0.157,1.116,0.344,1.333,0.562
		c0.214,0.223,0.318,0.478,0.318,0.768c0,0.343-0.127,0.657-0.38,0.942c-0.251,0.287-0.624,0.508-1.112,0.669
		c-0.485,0.163-1.024,0.243-1.614,0.243c-0.522,0-0.992-0.061-1.42-0.185c-0.426-0.123-0.733-0.29-0.916-0.498
		c-0.185-0.209-0.276-0.424-0.276-0.647c0-0.181,0.059-0.367,0.18-0.562c0.118-0.194,0.271-0.354,0.451-0.48
		c0.111-0.08,0.436-0.268,0.965-0.564c-0.194-0.151-0.289-0.317-0.289-0.496c0-0.167,0.081-0.346,0.244-0.534
		c0.162-0.188,0.51-0.396,1.038-0.621c-0.447-0.088-0.801-0.28-1.063-0.579c-0.26-0.296-0.392-0.628-0.392-0.994
		c0-0.594,0.26-1.128,0.784-1.596c0.525-0.471,1.222-0.706,2.093-0.706c0.315,0,0.574,0.032,0.776,0.095
		c0.201,0.063,0.396,0.162,0.588,0.299H380.997z M375.807,97.483c-0.339,0.154-0.596,0.352-0.771,0.595
		c-0.173,0.241-0.261,0.479-0.261,0.713c0,0.276,0.125,0.503,0.377,0.683c0.36,0.259,0.888,0.388,1.581,0.388
		c0.597,0,1.11-0.101,1.534-0.303c0.427-0.203,0.639-0.465,0.639-0.787c0-0.162-0.079-0.317-0.236-0.464
		c-0.155-0.146-0.46-0.264-0.911-0.356C377.512,97.903,376.86,97.746,375.807,97.483z M378.849,93.168
		c0-0.335-0.097-0.598-0.289-0.792c-0.191-0.192-0.445-0.289-0.758-0.289c-0.491,0-0.894,0.237-1.215,0.713
		c-0.318,0.476-0.479,0.971-0.479,1.486c0,0.322,0.104,0.586,0.307,0.792c0.204,0.206,0.45,0.309,0.744,0.309
		c0.23,0,0.452-0.061,0.666-0.183c0.215-0.121,0.396-0.288,0.544-0.502c0.146-0.213,0.265-0.486,0.351-0.816
		C378.807,93.553,378.849,93.314,378.849,93.168z"/>
	<path d="M383.807,91.759l-1.325,4.462c-0.09,0.301-0.134,0.482-0.134,0.542c0,0.062,0.014,0.114,0.051,0.154
		c0.038,0.042,0.08,0.062,0.129,0.062c0.059,0,0.126-0.032,0.208-0.096c0.217-0.186,0.434-0.453,0.654-0.801l0.22,0.145
		c-0.271,0.433-0.589,0.791-0.957,1.078c-0.271,0.212-0.529,0.318-0.776,0.318c-0.166,0-0.299-0.05-0.399-0.152
		c-0.104-0.102-0.157-0.229-0.157-0.382c0-0.157,0.058-0.417,0.17-0.78l0.872-2.843c0.137-0.461,0.202-0.752,0.202-0.868
		c0-0.093-0.031-0.168-0.098-0.228c-0.064-0.058-0.152-0.087-0.264-0.087c-0.092,0-0.282,0.022-0.57,0.069v-0.246L383.807,91.759z
		 M383.527,89.264c0.179,0,0.325,0.062,0.449,0.184c0.121,0.121,0.184,0.271,0.184,0.446c0,0.173-0.062,0.322-0.189,0.445
		c-0.122,0.123-0.27,0.185-0.443,0.185c-0.172,0-0.321-0.062-0.442-0.185c-0.126-0.124-0.188-0.272-0.188-0.445
		c0-0.176,0.062-0.325,0.184-0.446C383.202,89.326,383.352,89.264,383.527,89.264z"/>
	<path d="M386.984,91.795l-0.822,2.847c0.842-1.163,1.486-1.929,1.936-2.296c0.449-0.368,0.877-0.551,1.292-0.551
		c0.225,0,0.413,0.076,0.556,0.228c0.147,0.153,0.221,0.352,0.221,0.596c0,0.249-0.067,0.58-0.206,0.995l-0.864,2.619
		c-0.101,0.304-0.151,0.487-0.151,0.554c0,0.056,0.016,0.102,0.045,0.141c0.029,0.039,0.061,0.058,0.096,0.058
		c0.042,0,0.096-0.028,0.159-0.08c0.195-0.171,0.411-0.436,0.642-0.799l0.195,0.122c-0.371,0.547-0.722,0.936-1.054,1.163
		c-0.229,0.156-0.438,0.233-0.621,0.233c-0.149,0-0.267-0.046-0.353-0.139c-0.088-0.095-0.134-0.22-0.134-0.377
		c0-0.202,0.082-0.547,0.247-1.037l0.834-2.527c0.105-0.312,0.16-0.559,0.16-0.735c0-0.084-0.03-0.152-0.091-0.204
		c-0.057-0.052-0.131-0.079-0.219-0.079c-0.125,0-0.279,0.05-0.456,0.152c-0.336,0.188-0.687,0.498-1.053,0.932
		c-0.362,0.434-0.749,0.986-1.153,1.66c-0.213,0.356-0.392,0.746-0.533,1.168l-0.311,1.04h-0.932l1.134-3.928
		c0.135-0.473,0.203-0.756,0.203-0.852c0-0.092-0.037-0.172-0.111-0.241c-0.073-0.069-0.163-0.104-0.267-0.104
		c-0.05,0-0.136,0.009-0.262,0.025l-0.229,0.038l-0.055-0.229L386.984,91.795z"/>
	<path d="M392.01,95.112c-0.025,0.209-0.039,0.381-0.039,0.518c0,0.372,0.135,0.688,0.402,0.948c0.271,0.259,0.596,0.39,0.979,0.39
		c0.307,0,0.601-0.062,0.884-0.184c0.284-0.124,0.705-0.395,1.266-0.816l0.13,0.181c-0.995,0.984-1.941,1.476-2.84,1.476
		c-0.614,0-1.076-0.193-1.385-0.576c-0.311-0.385-0.467-0.809-0.467-1.274c0-0.623,0.192-1.262,0.576-1.914
		c0.39-0.651,0.871-1.159,1.453-1.522c0.584-0.361,1.184-0.542,1.798-0.542c0.444,0,0.774,0.09,0.985,0.271
		c0.214,0.179,0.325,0.394,0.325,0.641c0,0.347-0.141,0.679-0.425,0.999c-0.367,0.414-0.913,0.749-1.632,1.004
		C393.543,94.881,392.872,95.016,392.01,95.112z M392.053,94.801c0.632-0.071,1.149-0.192,1.546-0.363
		c0.527-0.23,0.921-0.508,1.187-0.827c0.263-0.321,0.396-0.625,0.396-0.916c0-0.174-0.058-0.317-0.171-0.427
		c-0.112-0.108-0.275-0.162-0.485-0.162c-0.436,0-0.899,0.228-1.389,0.681C392.645,93.242,392.285,93.914,392.053,94.801z"/>
</g>
<g>
	<path fill="#4F8ABE" d="M232.006,72.803c0,0.461,0.098,0.643,0.443,0.643c0.115,0,0.265,0,0.461-0.033v1.301
		c-0.279,0.099-0.873,0.214-1.186,0.214c-0.757,0-1.302-0.264-1.45-1.038c-0.74,0.725-1.943,1.038-2.947,1.038
		c-1.533,0-2.917-0.824-2.917-2.487c0-2.125,1.697-2.471,3.279-2.652c1.35-0.247,2.554-0.099,2.554-1.203
		c0-0.972-1.005-1.153-1.763-1.153c-1.055,0-1.796,0.428-1.879,1.351h-1.878c0.133-2.191,1.994-2.833,3.871-2.833
		c1.663,0,3.411,0.675,3.411,2.471V72.803z M230.127,70.431c-0.576,0.379-1.483,0.362-2.307,0.511
		c-0.807,0.132-1.531,0.428-1.531,1.417c0,0.84,1.071,1.087,1.729,1.087c0.824,0,2.108-0.429,2.108-1.615V70.431z"/>
	<path fill="#4F8ABE" d="M241.887,74.697h-1.777v-1.153h-0.033c-0.495,0.972-1.565,1.384-2.637,1.384
		c-2.686,0-3.986-1.993-3.986-4.546c0-3.081,1.828-4.431,3.69-4.431c1.071,0,2.256,0.395,2.833,1.334h0.033v-4.349h1.877V74.697z
		 M237.687,73.445c1.682,0,2.39-1.532,2.39-3.015c0-1.878-0.907-2.998-2.356-2.998c-1.762,0-2.389,1.565-2.389,3.097
		C235.331,71.996,236.056,73.445,237.687,73.445z"/>
	<path fill="#4F8ABE" d="M242.924,66.181h2.044l2.158,6.54h0.031l2.077-6.54h1.942l-3.046,8.517h-2.108L242.924,66.181z"/>
	<path fill="#4F8ABE" d="M252.198,62.936h1.878v1.779h-1.878V62.936z M252.198,66.181h1.878v8.517h-1.878V66.181z"/>
	<path fill="#4F8ABE" d="M257.37,71.962c0.099,1.087,0.924,1.483,1.928,1.483c0.708,0,1.943-0.148,1.896-1.121
		c-0.05-0.988-1.417-1.104-2.784-1.417c-1.385-0.296-2.735-0.791-2.735-2.521c0-1.861,2.011-2.438,3.558-2.438
		c1.746,0,3.329,0.725,3.559,2.619h-1.959c-0.166-0.89-0.907-1.137-1.731-1.137c-0.543,0-1.548,0.132-1.548,0.873
		c0,0.922,1.384,1.054,2.768,1.367c1.367,0.313,2.751,0.807,2.751,2.487c0,2.026-2.043,2.768-3.806,2.768
		c-2.142,0-3.738-0.956-3.771-2.965H257.37z"/>
	<path fill="#4F8ABE" d="M265.804,70.925c0,1.334,0.725,2.521,2.29,2.521c1.087,0,1.746-0.478,2.075-1.417h1.779
		c-0.412,1.861-1.992,2.899-3.854,2.899c-2.669,0-4.167-1.861-4.167-4.48c0-2.422,1.58-4.497,4.117-4.497
		c2.685,0,4.333,2.421,4.021,4.975H265.804z M270.186,69.689c-0.066-1.186-0.872-2.257-2.142-2.257c-1.301,0-2.191,0.988-2.24,2.257
		H270.186z"/>
	<path fill="#4F8ABE" d="M273.479,72.473h2.29v2.224h-2.29V72.473z"/>
	<path fill="#94A545" d="M277.747,66.181h1.777v1.252l0.033,0.033c0.561-0.939,1.532-1.515,2.652-1.515
		c1.846,0,3.015,0.988,3.015,2.899v5.848h-1.877v-5.354c-0.033-1.334-0.562-1.911-1.665-1.911c-1.252,0-2.058,0.988-2.058,2.24
		v5.024h-1.878V66.181z"/>
	<path fill="#94A545" d="M294.169,72.803c0,0.461,0.1,0.643,0.445,0.643c0.114,0,0.263,0,0.46-0.033v1.301
		c-0.28,0.099-0.872,0.214-1.185,0.214c-0.759,0-1.303-0.264-1.45-1.038c-0.741,0.725-1.944,1.038-2.949,1.038
		c-1.531,0-2.916-0.824-2.916-2.487c0-2.125,1.698-2.471,3.278-2.652c1.351-0.247,2.554-0.099,2.554-1.203
		c0-0.972-1.004-1.153-1.763-1.153c-1.054,0-1.796,0.428-1.878,1.351h-1.877c0.131-2.191,1.992-2.833,3.871-2.833
		c1.663,0,3.409,0.675,3.409,2.471V72.803z M292.291,70.431c-0.576,0.379-1.483,0.362-2.306,0.511
		c-0.809,0.132-1.533,0.428-1.533,1.417c0,0.84,1.071,1.087,1.729,1.087c0.824,0,2.109-0.429,2.109-1.615V70.431z"/>
	<path fill="#94A545" d="M295.189,66.181h2.042l2.158,6.54h0.033l2.075-6.54h1.943l-3.047,8.517h-2.108L295.189,66.181z"/>
	<path fill="#94A545" d="M304.464,62.936h1.877v1.779h-1.877V62.936z M304.464,66.181h1.877v8.517h-1.877V66.181z"/>
	<path fill="#94A545" d="M316.094,74.252c0,2.553-1.5,3.821-4.186,3.821c-1.713,0-3.64-0.659-3.805-2.652h1.878
		c0.23,1.071,1.087,1.252,2.042,1.252c1.516,0,2.191-0.774,2.191-2.174v-1.302h-0.033c-0.526,0.939-1.499,1.5-2.554,1.5
		c-2.701,0-3.821-2.043-3.821-4.481c0-2.29,1.433-4.266,3.854-4.266c1.07,0,2.044,0.444,2.521,1.4h0.033v-1.169h1.879V74.252z
		 M314.215,70.25c0-1.466-0.659-2.817-2.29-2.817c-1.664,0-2.239,1.548-2.239,2.965c0,1.4,0.675,2.817,2.239,2.817
		C313.59,73.214,314.215,71.699,314.215,70.25z"/>
	<path fill="#94A545" d="M324.955,72.803c0,0.461,0.098,0.643,0.443,0.643c0.116,0,0.264,0,0.462-0.033v1.301
		c-0.28,0.099-0.874,0.214-1.187,0.214c-0.757,0-1.301-0.264-1.45-1.038c-0.741,0.725-1.942,1.038-2.947,1.038
		c-1.533,0-2.916-0.824-2.916-2.487c0-2.125,1.696-2.471,3.278-2.652c1.351-0.247,2.553-0.099,2.553-1.203
		c0-0.972-1.005-1.153-1.763-1.153c-1.054,0-1.796,0.428-1.877,1.351h-1.879c0.133-2.191,1.994-2.833,3.871-2.833
		c1.664,0,3.411,0.675,3.411,2.471V72.803z M323.077,70.431c-0.577,0.379-1.483,0.362-2.308,0.511
		c-0.808,0.132-1.532,0.428-1.532,1.417c0,0.84,1.072,1.087,1.73,1.087c0.823,0,2.109-0.429,2.109-1.615V70.431z"/>
	<path fill="#94A545" d="M325.959,66.181h1.417v-2.553h1.877v2.553h1.696v1.4h-1.696v4.547c0,0.774,0.066,1.169,0.907,1.169
		c0.263,0,0.526,0,0.789-0.066v1.45c-0.41,0.033-0.806,0.099-1.218,0.099c-1.961,0-2.323-0.758-2.355-2.174v-5.024h-1.417V66.181z"
		/>
	<path fill="#94A545" d="M333.602,70.925c0,1.334,0.726,2.521,2.291,2.521c1.086,0,1.746-0.478,2.075-1.417h1.779
		c-0.412,1.861-1.994,2.899-3.854,2.899c-2.67,0-4.169-1.861-4.169-4.48c0-2.422,1.582-4.497,4.119-4.497
		c2.685,0,4.331,2.421,4.019,4.975H333.602z M337.984,69.689c-0.066-1.186-0.874-2.257-2.142-2.257
		c-1.302,0-2.191,0.988-2.241,2.257H337.984z"/>
	<path fill="#94A545" d="M341.277,72.473h2.289v2.224h-2.289V72.473z"/>
	<path fill="#F8971D" d="M345.544,66.181h1.762v1.647h0.034c0.214-0.906,1.334-1.877,2.487-1.877c0.429,0,0.543,0.033,0.708,0.049
		v1.812c-0.263-0.033-0.544-0.083-0.808-0.083c-1.284,0-2.305,1.038-2.305,2.916v4.053h-1.879V66.181z"/>
	<path fill="#F8971D" d="M352.349,70.925c0,1.334,0.725,2.521,2.291,2.521c1.087,0,1.746-0.478,2.075-1.417h1.778
		c-0.412,1.861-1.992,2.899-3.854,2.899c-2.67,0-4.169-1.861-4.169-4.48c0-2.422,1.581-4.497,4.119-4.497
		c2.684,0,4.332,2.421,4.02,4.975H352.349z M356.731,69.689c-0.067-1.186-0.874-2.257-2.142-2.257c-1.303,0-2.192,0.988-2.241,2.257
		H356.731z"/>
	<path fill="#F8971D" d="M359.102,66.181h1.993l1.665,6.358h0.031l1.599-6.358h1.894l1.532,6.358h0.033l1.729-6.358h1.911
		l-2.669,8.517h-1.927l-1.582-6.326h-0.033l-1.563,6.326h-1.978L359.102,66.181z"/>
	<path fill="#F8971D" d="M379.66,72.803c0,0.461,0.1,0.643,0.445,0.643c0.114,0,0.263,0,0.46-0.033v1.301
		c-0.28,0.099-0.872,0.214-1.185,0.214c-0.758,0-1.303-0.264-1.45-1.038c-0.741,0.725-1.944,1.038-2.949,1.038
		c-1.532,0-2.916-0.824-2.916-2.487c0-2.125,1.698-2.471,3.278-2.652c1.351-0.247,2.554-0.099,2.554-1.203
		c0-0.972-1.004-1.153-1.762-1.153c-1.055,0-1.796,0.428-1.879,1.351h-1.878c0.132-2.191,1.994-2.833,3.872-2.833
		c1.663,0,3.409,0.675,3.409,2.471V72.803z M377.782,70.431c-0.576,0.379-1.483,0.362-2.306,0.511
		c-0.808,0.132-1.533,0.428-1.533,1.417c0,0.84,1.071,1.087,1.729,1.087c0.825,0,2.109-0.429,2.109-1.615V70.431z"/>
	<path fill="#F8971D" d="M381.521,66.181h1.762v1.647h0.033c0.216-0.906,1.336-1.877,2.487-1.877c0.429,0,0.545,0.033,0.709,0.049
		v1.812c-0.264-0.033-0.543-0.083-0.808-0.083c-1.285,0-2.306,1.038-2.306,2.916v4.053h-1.878V66.181z"/>
	<path fill="#F8971D" d="M394.881,74.697h-1.778v-1.153h-0.033c-0.493,0.972-1.565,1.384-2.635,1.384
		c-2.687,0-3.986-1.993-3.986-4.546c0-3.081,1.828-4.431,3.688-4.431c1.072,0,2.257,0.395,2.834,1.334h0.032v-4.349h1.878V74.697z
		 M390.681,73.445c1.681,0,2.389-1.532,2.389-3.015c0-1.878-0.905-2.998-2.354-2.998c-1.763,0-2.389,1.565-2.389,3.097
		C388.326,71.996,389.05,73.445,390.681,73.445z"/>
	<path fill="#F8971D" d="M396.906,72.473h2.291v2.224h-2.291V72.473z"/>
</g>
<line fill="none" stroke="#000000" stroke-width="0.5" x1="224.368" y1="85.738" x2="400.792" y2="85.738"/>
<g>
	<path d="M399.573,62.459c1.129,0,2.004,0.875,2.004,1.967c0,1.115-0.875,1.979-2.016,1.979c-1.127,0-2.026-0.864-2.026-1.979
		c0-1.091,0.899-1.967,2.026-1.967H399.573z M399.55,62.855c-0.863,0-1.511,0.708-1.511,1.571c0,0.875,0.647,1.571,1.534,1.571
		c0.865,0.012,1.5-0.696,1.5-1.571c0-0.863-0.635-1.571-1.512-1.571H399.55z M399.251,65.446h-0.457v-1.955
		c0.18-0.036,0.432-0.072,0.756-0.072c0.373,0,0.539,0.06,0.684,0.156c0.107,0.084,0.191,0.24,0.191,0.42
		c0,0.228-0.168,0.396-0.406,0.468v0.024c0.191,0.06,0.299,0.216,0.359,0.479c0.061,0.3,0.096,0.42,0.145,0.48h-0.492
		c-0.061-0.072-0.096-0.24-0.156-0.468c-0.035-0.216-0.156-0.312-0.408-0.312h-0.215V65.446z M399.263,64.342h0.215
		c0.252,0,0.457-0.084,0.457-0.288c0-0.18-0.133-0.3-0.42-0.3c-0.121,0-0.205,0.012-0.252,0.024V64.342z"/>
</g>
<g>
	<path d="M399.573,88.436c1.129,0,2.004,0.875,2.004,1.967c0,1.115-0.875,1.979-2.016,1.979c-1.127,0-2.026-0.864-2.026-1.979
		c0-1.091,0.899-1.967,2.026-1.967H399.573z M399.55,88.831c-0.863,0-1.511,0.708-1.511,1.571c0,0.875,0.647,1.571,1.534,1.571
		c0.865,0.012,1.5-0.696,1.5-1.571c0-0.863-0.635-1.571-1.512-1.571H399.55z M399.251,91.422h-0.457v-1.955
		c0.18-0.036,0.432-0.072,0.756-0.072c0.373,0,0.539,0.06,0.684,0.156c0.107,0.084,0.191,0.24,0.191,0.42
		c0,0.228-0.168,0.396-0.406,0.468v0.024c0.191,0.06,0.299,0.216,0.359,0.479c0.061,0.3,0.096,0.42,0.145,0.48h-0.492
		c-0.061-0.072-0.096-0.24-0.156-0.468c-0.035-0.216-0.156-0.312-0.408-0.312h-0.215V91.422z M399.263,90.318h0.215
		c0.252,0,0.457-0.084,0.457-0.288c0-0.18-0.133-0.3-0.42-0.3c-0.121,0-0.205,0.012-0.252,0.024V90.318z"/>
</g>
</svg>
