<?xml version="1.0" encoding="utf-8"?>
<!-- Generator: Adobe Illustrator 16.0.0, SVG Export Plug-In . SVG Version: 6.00 Build 0)  -->
<!DOCTYPE svg PUBLIC "-//W3C//DTD SVG 1.1//EN" "http://www.w3.org/Graphics/SVG/1.1/DTD/svg11.dtd">
<svg version="1.1" id="Layer_1" xmlns="http://www.w3.org/2000/svg" xmlns:xlink="http://www.w3.org/1999/xlink" x="0px" y="0px"
	 width="236.554px" height="71.774px" viewBox="0 0 236.554 71.774" enable-background="new 0 0 236.554 71.774"
	 xml:space="preserve">
<g>
	<path d="M35.326,54.985c0-0.215-0.171-0.258-0.429-0.258c-0.429,0-1.071-0.042-1.714-0.257c-0.9-0.258-2.143-0.942-3.683-4.756
		c-2.614-6.513-9.341-24.208-9.985-25.835c-0.513-1.327-0.685-1.542-0.941-1.542c-0.258,0-0.429,0.257-0.943,1.671L5.227,58.647
		c-0.771,2.144-1.628,3.771-3.598,4.028c-0.343,0.043-0.943,0.086-1.243,0.086C0.171,62.761,0,62.845,0,63.018
		c0,0.257,0.258,0.342,0.815,0.342c2.013,0,4.37-0.128,4.841-0.128c0.471,0,2.314,0.128,3.342,0.128
		c0.385,0,0.642-0.085,0.642-0.342c0-0.173-0.128-0.257-0.427-0.257H8.784c-0.729,0-1.629-0.387-1.629-1.242
		c0-0.771,0.215-1.801,0.6-2.872l5.249-15.616c0.085-0.214,0.214-0.343,0.428-0.343h9.212c0.214,0,0.3,0.086,0.386,0.257
		l3.983,10.54c0.259,0.685,0,1.071-0.256,1.157c-0.172,0.043-0.299,0.128-0.299,0.3c0,0.257,0.47,0.257,1.284,0.3
		c2.957,0.085,6.084,0.085,6.726,0.085C34.941,55.327,35.326,55.242,35.326,54.985z M22.087,41.146h-8.183
		c-0.129,0-0.214-0.086-0.129-0.301l3.771-11.567c0.214-0.643,0.429-0.643,0.642,0l4.07,11.567
		C22.301,41.017,22.301,41.146,22.087,41.146z"/>
	<path d="M46.508,39.518l-1.072-0.729c-3.726-2.527-4.884-3.854-4.884-6.17c0-2.57,2.271-3.941,5.012-3.941
		c3.386,0,4.629,1.371,4.885,1.8c0.214,0.385,0.514,1.371,0.558,1.799c0.041,0.3,0.086,0.471,0.342,0.471
		c0.257,0,0.299-0.257,0.299-0.814c0-2.485,0.173-3.684,0.173-3.856c0-0.214-0.088-0.257-0.387-0.257c-0.3,0-0.6,0-1.326-0.171
		c-0.902-0.214-2.402-0.429-3.901-0.429c-4.969,0-8.354,2.571-8.354,6.856c0,2.528,1.328,4.757,5.397,7.798l1.714,1.284
		c3.343,2.486,4.757,3.728,4.757,6.341c0,2.742-1.929,4.842-5.657,4.842c-2.527,0-5.355-0.942-5.954-3.599
		c-0.13-0.514-0.13-1.028-0.13-1.327c0-0.301-0.127-0.429-0.341-0.429c-0.214,0-0.299,0.213-0.299,0.599
		c-0.045,0.601-0.216,2.058-0.216,3.856c0,0.985,0.045,1.114,0.557,1.371c1.542,0.729,3.728,0.985,5.484,0.985
		c2.057,0,4.414-0.256,5.999-1.285c2.699-1.756,3.513-4.07,3.513-6.213C52.677,45.173,51.093,42.645,46.508,39.518z"/>
	<path d="M64.672,53.228c2.658,2.484,6.599,2.57,7.84,2.57c2.228,0,5.143-0.299,7.884-2.656c3.001-2.571,3.515-6.983,3.515-10.926
		v-3.898c0-5.655-0.045-6.684,0.041-7.84c0.085-1.2,0.301-1.8,1.328-2.014c0.472-0.086,0.686-0.086,0.943-0.086
		c0.172,0,0.301-0.171,0.301-0.3c0-0.214-0.171-0.3-0.6-0.3c-1.114,0-2.914,0.086-3.171,0.086c-0.215,0-2.399-0.086-4.071-0.086
		c-0.427,0-0.599,0.086-0.599,0.3c0,0.129,0.129,0.3,0.3,0.3c0.343,0,0.986,0.043,1.285,0.086c1.242,0.171,1.457,0.857,1.501,2.014
		c0.041,1.156,0.084,2.185,0.084,7.84v4.584c0,3.729-0.385,6.727-2.142,8.826c-1.285,1.543-3.512,2.57-5.826,2.57
		c-2.142,0-3.771-0.299-5.613-1.97c-1.629-1.458-2.784-3.642-2.784-8.911v-5.1c0-5.655,0-6.684,0.085-7.84
		c0.085-1.2,0.299-1.843,1.285-2.014c0.471-0.086,0.686-0.086,0.942-0.086c0.172,0,0.344-0.171,0.344-0.3
		c0-0.214-0.214-0.3-0.644-0.3c-1.113,0-3.471,0.086-3.812,0.086c-0.343,0-2.614-0.086-4.329-0.086c-0.427,0-0.6,0.086-0.6,0.3
		c0,0.129,0.173,0.3,0.301,0.3c0.343,0,0.986,0.043,1.286,0.086c1.241,0.171,1.455,0.857,1.541,2.014
		c0.087,1.156,0.087,2.185,0.087,7.84v5.355C61.374,48.987,62.83,51.513,64.672,53.228z"/>
	<path d="M116.728,55.327h2.356c0.686,0,0.901-0.085,0.901-0.3c0-0.128-0.129-0.3-0.343-0.3c-0.215,0-0.6,0-1.329-0.128
		c-0.942-0.129-2.184-0.471-4.198-2.528c-2.185-2.271-4.8-5.569-7.883-9.426c3.513-2.999,4.627-5.612,4.627-8.311
		c0-2.528-1.672-4.285-2.614-4.97c-1.972-1.372-4.628-1.586-7.026-1.586c-1.156,0-4.328,0.086-4.712,0.086
		c-0.216,0-2.744-0.086-4.458-0.086c-0.428,0-0.599,0.086-0.599,0.3c0,0.129,0.171,0.3,0.301,0.3c0.341,0,0.985,0.043,1.284,0.086
		c1.244,0.171,1.457,0.771,1.542,2.014c0.086,1.156,0.086,2.185,0.086,7.84v6.427c0,3.513,0,6.384-0.214,7.884
		c-0.17,1.07-0.256,1.756-0.985,1.928c-0.344,0.086-0.814,0.171-1.158,0.171c-0.214,0-0.299,0.172-0.299,0.3
		c0,0.215,0.214,0.3,0.599,0.3c1.157,0,3.685-0.128,3.729-0.128c0.172,0,2.57,0.128,4.628,0.128c0.427,0,0.598-0.128,0.598-0.3
		c0-0.128-0.043-0.3-0.299-0.3c-0.344,0-1.158-0.085-1.671-0.171c-1.157-0.172-1.371-0.857-1.5-1.928
		c-0.17-1.5-0.17-4.328-0.17-7.841v-0.856c0-0.215,0.084-0.301,0.256-0.301l4.798,0.086c0.256,0,0.342,0.043,0.514,0.215
		c0.815,0.984,2.484,3.342,4.069,5.312c2.144,2.741,3.516,4.498,5.143,5.355C113.643,55.113,114.586,55.327,116.728,55.327z
		 M105.16,41.788c-0.899,0.601-1.929,0.644-2.828,0.644c-1.67,0-3.597-0.258-4.155-0.557c-0.172-0.129-0.256-0.258-0.256-0.472
		V29.706c0-0.214,0.127-0.342,0.299-0.428c0.384-0.086,1.585-0.214,2.698-0.214c4.028,0,6.513,2.613,6.513,7.154
		C107.431,39.003,106.446,40.932,105.16,41.788z"/>
	<path d="M130.138,54.727c-0.344,0-1.158-0.085-1.715-0.171c-1.113-0.172-1.241-0.857-1.371-1.928
		c-0.172-1.5-0.172-4.371-0.172-7.884v-6.427c0-5.655,0-6.684,0.046-7.84c0.085-1.286,0.299-1.8,1.326-2.014
		c0.43-0.086,0.687-0.086,0.942-0.086c0.129,0,0.301-0.171,0.301-0.3c0-0.214-0.172-0.3-0.601-0.3c-1.155,0-3.598,0.086-3.769,0.086
		c-0.215,0-2.571-0.086-3.814-0.086c-0.43,0-0.6,0.086-0.6,0.3c0,0.129,0.129,0.3,0.301,0.3c0.257,0,0.728,0.043,1.156,0.129
		c0.814,0.171,1.115,0.728,1.2,1.971c0.086,1.156,0.086,2.185,0.086,7.84v6.427c0,3.513-0.044,6.384-0.214,7.884
		c-0.131,1.07-0.258,1.756-0.987,1.928c-0.342,0.086-0.814,0.171-1.157,0.171c-0.215,0-0.3,0.172-0.3,0.3
		c0,0.215,0.216,0.3,0.599,0.3c1.159,0,3.515-0.128,3.73-0.128c0.171,0,2.614,0.128,4.711,0.128c0.43,0,0.6-0.128,0.6-0.3
		C130.437,54.899,130.353,54.727,130.138,54.727z"/>
	<path d="M145.776,39.518l-1.07-0.729c-3.728-2.527-4.885-3.854-4.885-6.17c0-2.57,2.271-3.941,5.012-3.941
		c3.386,0,4.628,1.371,4.885,1.8c0.214,0.385,0.515,1.371,0.558,1.799c0.042,0.3,0.086,0.471,0.342,0.471
		c0.258,0,0.301-0.257,0.301-0.814c0-2.485,0.172-3.684,0.172-3.856c0-0.214-0.087-0.257-0.388-0.257c-0.3,0-0.598,0-1.327-0.171
		c-0.9-0.214-2.399-0.429-3.897-0.429c-4.972,0-8.354,2.571-8.354,6.856c0,2.528,1.328,4.757,5.396,7.798l1.714,1.284
		c3.341,2.486,4.755,3.728,4.755,6.341c0,2.742-1.927,4.842-5.654,4.842c-2.527,0-5.354-0.942-5.956-3.599
		c-0.128-0.514-0.128-1.028-0.128-1.327c0-0.301-0.127-0.429-0.342-0.429s-0.301,0.213-0.301,0.599
		c-0.042,0.601-0.213,2.058-0.213,3.856c0,0.985,0.043,1.114,0.555,1.371c1.543,0.729,3.73,0.985,5.486,0.985
		c2.055,0,4.413-0.256,5.998-1.285c2.697-1.756,3.513-4.07,3.513-6.213C151.946,45.173,150.361,42.645,145.776,39.518z"/>
	<polygon fill="#439539" points="42.897,69.332 42.865,69.332 36.824,60.029 35.201,60.029 35.201,71.501 36.647,71.501 
		36.647,62.294 36.68,62.294 42.672,71.501 44.343,71.501 44.343,60.029 42.897,60.029 	"/>
	<path fill="#439539" d="M58.368,65.765c0-3.117-1.847-6.01-5.495-6.01c-3.647,0-5.495,2.893-5.495,6.01s1.848,6.009,5.495,6.009
		C56.521,71.774,58.368,68.882,58.368,65.765z M52.873,70.489c-2.795,0-3.968-2.41-3.968-4.724s1.173-4.723,3.968-4.723
		c2.796,0,3.968,2.409,3.968,4.723S55.669,70.489,52.873,70.489z"/>
	<path fill="#439539" d="M68.329,65.974v-0.033c1.382-0.385,1.992-1.525,1.992-2.907c0-1.831-1.334-3.005-3.487-3.005h-5.398v11.473
		h1.526V66.6h3.728c1.478,0,1.751,0.948,1.912,2.073c0.225,1.125-0.016,2.36,0.417,2.828h1.704
		c-0.643-0.787-0.579-2.041-0.675-3.166C69.935,67.21,69.662,66.231,68.329,65.974z M66.144,65.315h-3.182v-4h3.792
		c1.43,0,2.04,0.835,2.04,1.96C68.794,64.946,67.573,65.315,66.144,65.315z"/>
	<polygon fill="#439539" points="72.138,61.315 75.962,61.315 75.962,71.501 77.488,71.501 77.488,61.315 81.312,61.315 
		81.312,60.029 72.138,60.029 	"/>
	<polygon fill="#439539" points="91.353,64.962 85.312,64.962 85.312,60.029 83.785,60.029 83.785,71.501 85.312,71.501 
		85.312,66.248 91.353,66.248 91.353,71.501 92.879,71.501 92.879,60.029 91.353,60.029 	"/>
	<polygon fill="#439539" points="106.165,69.573 106.133,69.573 103.595,60.029 101.94,60.029 99.369,69.573 99.337,69.573 
		97.088,60.029 95.529,60.029 98.47,71.501 100.06,71.501 102.711,61.861 102.743,61.861 105.362,71.501 106.953,71.501 
		110.02,60.029 108.494,60.029 	"/>
	<polygon fill="#439539" points="114.198,66.248 120.159,66.248 120.159,64.962 114.198,64.962 114.198,61.315 120.592,61.315 
		120.592,60.029 112.671,60.029 112.671,71.501 120.641,71.501 120.641,70.214 114.198,70.214 	"/>
	<path fill="#439539" d="M132.255,68.351c0-2.248-1.832-2.891-3.663-3.309c-1.848-0.418-3.68-0.627-3.68-2.041
		c0-1.494,1.286-1.959,2.571-1.959c1.574,0,2.667,0.707,2.844,2.344h1.446c-0.097-2.521-1.88-3.631-4.226-3.631
		c-2.088,0-4.162,1.029-4.162,3.358c0,2.104,1.848,2.636,3.679,3.037c1.832,0.401,3.662,0.674,3.662,2.249
		c0,1.654-1.526,2.089-2.907,2.089c-1.735,0-3.342-0.836-3.342-2.764h-1.446c0,2.796,2.169,4.049,4.74,4.049
		C129.862,71.774,132.255,70.794,132.255,68.351z"/>
	<polygon fill="#439539" points="134.085,61.315 137.91,61.315 137.91,71.501 139.437,71.501 139.437,61.315 143.26,61.315 
		143.26,60.029 134.085,60.029 	"/>
	<polygon fill="#439539" points="158.973,64.962 152.931,64.962 152.931,60.029 151.405,60.029 151.405,71.501 152.931,71.501 
		152.931,66.248 158.973,66.248 158.973,71.501 160.499,71.501 160.499,60.029 158.973,60.029 	"/>
	<polygon fill="#439539" points="165.736,66.248 171.697,66.248 171.697,64.962 165.736,64.962 165.736,61.315 172.129,61.315 
		172.129,60.029 164.208,60.029 164.208,71.501 172.179,71.501 172.179,70.214 165.736,70.214 	"/>
	<path fill="#439539" d="M178.347,60.029l-4.483,11.473h1.575l1.285-3.455h4.852l1.254,3.455h1.687l-4.482-11.473H178.347z
		 M177.206,66.761l1.944-5.351h0.033l1.911,5.351H177.206z"/>
	<polygon fill="#439539" points="188.372,60.029 186.846,60.029 186.846,71.501 194.446,71.501 194.446,70.214 188.372,70.214 	"/>
	<polygon fill="#439539" points="194.287,61.315 198.111,61.315 198.111,71.501 199.638,71.501 199.638,61.315 203.461,61.315 
		203.461,60.029 194.287,60.029 	"/>
	<polygon fill="#439539" points="213.501,64.962 207.459,64.962 207.459,60.029 205.934,60.029 205.934,71.501 207.459,71.501 
		207.459,66.248 213.501,66.248 213.501,71.501 215.029,71.501 215.029,60.029 213.501,60.029 	"/>
	<polygon fill="#439539" points="159.42,7.747 212.717,41.94 157.761,0 122.888,24.792 	"/>
	<path fill="#439539" d="M184.227,42.947c17.163-3.154,1.86-5.244-10.709-5.689c-10.681-0.381-3.496-2.828,3.495-5.505
		c13.97-5.35-19.84-3.582-25.411-3.582l19.128,0.396c12.383,0.211,2.312,3.249,0.109,4.228c-2.008,0.892-12.286,4.667,0.017,5.352
		c14.786,0.822,24.195,1.454,6.008,4.466c-31.1,6.979,4.836,8.183,24.56,9.839c48.559,5.112,19.029,6.451,15.706,7.465
		c42.876-1.942,5.926-8.154-25.918-10.082C168.288,48.446,166.858,46.138,184.227,42.947z"/>
</g>
</svg>
