<?xml version="1.0" encoding="utf-8"?>
<!-- Generator: Adobe Illustrator 16.0.0, SVG Export Plug-In . SVG Version: 6.00 Build 0)  -->
<!DOCTYPE svg PUBLIC "-//W3C//DTD SVG 1.1//EN" "http://www.w3.org/Graphics/SVG/1.1/DTD/svg11.dtd">
<svg version="1.1" id="Layer_1" xmlns="http://www.w3.org/2000/svg" xmlns:xlink="http://www.w3.org/1999/xlink" x="0px" y="0px"
	 width="315.5px" height="59.25px" viewBox="0 0 315.5 59.25" enable-background="new 0 0 315.5 59.25" xml:space="preserve">
<g>
	<polygon points="91.75,43.25 91.75,42 91.75,42 93.5,41.75 94,41.75 94.5,41.25 94.75,41 95,40.25 95,38.25 95,30.75 95,30.75 
		94.75,28.5 94.5,27.5 94,26.75 93.5,26.25 92.75,25.75 92,25.5 91,25.25 91,25.25 89.75,25.5 88.5,26 87.25,26.75 85.75,27.75 
		85.75,27.75 86,29.75 86,38.75 86,38.75 86,40.25 86.25,41 86.5,41.25 86.75,41.75 87.5,41.75 89,42 89,43.25 79,43.25 79,42 
		79,42 80.75,41.75 81.25,41.75 81.75,41.25 82,41 82.25,40.25 82.25,38.5 82.25,30.75 82.25,30.75 82,28.25 81.75,27.5 81.5,26.75 
		80.75,26 80.25,25.75 79.25,25.5 78.25,25.25 78.25,25.25 77,25.5 75.75,26 74.5,27 73.25,27.75 73.25,38.5 73.25,38.5 73.5,40.25 
		73.75,41.25 74.25,41.5 74.5,41.75 76,42 76,43.25 66.25,43.25 66.25,42 66.25,42 68,41.75 68.75,41.5 69,41.25 69.5,41 
		69.5,40.25 69.75,38.5 69.75,29 69.75,29 69.75,27.25 69.25,26.25 69,26 68.5,25.75 67,25.5 67,24.5 67,24.5 70,23.75 73.25,22.5 
		73.25,26.25 73.25,26.25 76.75,24 76.75,24 78.5,23 79.25,22.75 80.5,22.75 80.5,22.75 82,23 83.5,23.5 84.75,24.75 85.5,26.5 
		85.5,26.5 89.25,23.75 89.25,23.75 91,23 91.75,22.75 92.75,22.75 92.75,22.75 94,22.75 95.25,23 96.25,23.75 97,24.5 97.75,25.5 
		98.25,26.75 98.5,28 98.5,29.75 98.5,38.5 98.5,38.5 98.75,40.25 98.75,41 99,41.25 99.5,41.75 100,41.75 101.5,42 101.5,43.25 
		91.75,43.25 	"/>
	<polygon points="123,24.25 123,24.25 121.5,24.75 120.5,25.25 119.75,26 119,27.75 119,27.75 117,32.75 113.25,41.5 113.25,41.5 
		110,49.5 108.5,54 108.5,54 108.25,54.5 108,54.75 107,55 107,55 106,55 105.25,54.5 104.75,53.75 104.5,52.75 104.5,52.75 
		104.5,52.5 104.75,52 105.75,51.25 105.75,51.25 106.75,50.5 107.5,49.5 108.25,48.5 109,47.25 109,47.25 110,45.25 110.5,44 
		110.5,44 110.75,43 110.5,42 110.5,42 107.5,34 105.25,27.75 105.25,27.75 104.5,26.25 103.75,25.25 102.75,24.75 101.25,24.25 
		101.25,23.25 110.5,23.25 110.5,24.25 110.5,24.25 109.25,24.75 108.5,25 108.5,25.75 108.75,26.75 113,38.5 113,38.5 115.25,32.5 
		117.25,27 117.25,27 117.5,25.75 117.25,25.5 117.25,25.25 116.25,24.75 114.75,24.25 114.75,23.25 123,23.25 123,24.25 	"/>
	<path d="M138.5,43.25V42l0,0l1.75-0.25l1-0.5L141.5,41v-0.5l-0.25-1l0,0l-2.5-7H129l0,0l-2,5.75l0,0L126.5,40v0.75l0.25,0.25
		l0.5,0.5l0.5,0.25l2,0.25v1.25h-10V42l0,0l2-0.25l0.5-0.5L123,41l1-1.25l1-2.5L134.5,13l1.5-0.25l0,0l8.75,24.5l0,0l1,2.5l0.5,0.75
		l0.5,0.5l0.5,0.5l0.75,0.25l1.75,0.25v1.25H138.5L138.5,43.25z M134,18.75L134,18.75L134,18.75l-4.25,11.75h8.5L134,18.75
		L134,18.75z"/>
	<polygon points="162,28.5 162,28.5 161.25,26.75 160.25,25.25 159.5,24.75 158.75,24.5 158,24.25 157.25,24 157.25,24 156,24.25 
		155,25 154.5,26 154.25,27.25 154.25,27.25 154.25,28 154.5,28.5 155.5,29.75 156.75,30.5 158.25,31.25 158.25,31.25 160.5,32.25 
		162.25,33.75 163,34.5 163.5,35.25 163.75,36.25 164,37.5 164,37.5 163.75,39 163.25,40.25 162.5,41.25 161.5,42.25 160.5,43 
		159.25,43.5 157.75,43.75 156.5,43.75 156.5,43.75 154.75,43.75 153.25,43.25 152,42.75 151,42.25 151,42.25 150.5,40 
		150.25,36.75 151.5,36.5 151.5,36.5 152.5,38.75 153.75,40.5 154.5,41.25 155.25,41.75 156.25,42.25 157.25,42.25 157.25,42.25 
		158.5,42 159.5,41.5 160.25,40.5 160.5,39 160.5,39 160.25,37.75 159.5,36.75 158.5,35.75 156.75,35 156.75,35 154.75,33.75 
		153,32.5 152.25,31.75 151.5,30.75 151.25,29.75 151,28.5 151,28.5 151.25,27.5 151.5,26.25 152.25,25.25 153,24.5 154,23.75 
		155.25,23 156.5,22.75 158,22.75 158,22.75 159.5,22.75 160.5,22.75 162.25,23.5 162.25,23.5 162.75,25.75 163.25,28.25 162,28.5 	
		"/>
	<polygon points="188.5,42.25 188.5,42.25 185,43 185,43 181.75,43.75 181.5,43.5 181.5,40.25 181.5,40.25 179.75,41.5 178,42.75 
		178,42.75 176.25,43.5 174.5,43.75 174.5,43.75 173.25,43.75 172.25,43.5 171.25,43 170.5,42.25 169.75,41.25 169.25,40.25 
		169,38.75 168.75,37 168.75,28 168.75,28 168.75,26.5 168.5,25.75 168,25.25 167.25,25 166,24.75 166,23.75 166,23.75 
		169.25,23.25 169.25,23.25 172.5,22.75 172.5,22.75 172.5,25.5 172.5,29.5 172.5,35.75 172.5,35.75 172.5,37.25 172.75,38.25 
		173.25,39.25 173.75,39.75 174.25,40.25 175,40.75 176.5,41 176.5,41 177.75,40.75 179,40.5 180.25,39.75 181.5,38.75 181.5,28 
		181.5,28 181.25,26.5 181,25.75 180.5,25.25 179.5,25 177.75,24.75 177.75,23.75 177.75,23.75 182,23.25 182,23.25 185,22.75 
		185,38.25 185,38.25 185.25,39.5 185.5,40.5 186,40.75 187.25,41 188.5,41 188.5,42.25 	"/>
	<polygon points="197,27.5 197,27.5 198.25,25.75 199.5,24.25 201,23 201.75,22.75 202.5,22.75 202.5,22.75 203.75,22.75 
		204.5,23.25 205,24 205.25,25 205.25,25 205.25,25.5 204.75,26.25 204.25,26.75 203.75,27.25 203.75,27.25 203,27.25 202.5,27 
		202.5,27 201.5,26.25 200.5,26.25 200.5,26.25 199.75,26.5 198.75,27.25 197.75,28.5 197,30 197,38.5 197,38.5 197,40.25 
		197.25,41 197.5,41.25 198,41.5 198.5,41.75 200.75,42 200.75,43.25 190,43.25 190,42 190,42 191.75,41.75 192.5,41.5 
		192.75,41.25 193,41 193.25,40.25 193.25,38.5 193.25,29 193.25,29 193.25,27.25 193,26.5 192.75,26.25 192.5,26 192,25.75 
		190.5,25.5 190.5,24.5 190.5,24.5 193.75,23.75 197,22.5 197,27.5 197,27.5 	"/>
	<path d="M207,43.25V42l0,0l1.75-0.25l0.5-0.25l0.5-0.25l0.25-0.5v-0.5l0.25-1.75V29l0,0L210,27.25l-0.25-1L209.5,26l-0.5-0.25
		l-1.75-0.25v-1.25l0,0l3.5-0.75l3-1v16l0,0l0.25,1.75v0.5l0.25,0.5l0.5,0.25l0.5,0.25L217,42v1.25H207L207,43.25z M209.5,16.25
		L209.5,16.25v-1l0.5-0.75l0.75-0.5h1l0,0h0.75l0.75,0.5l0.5,0.75l0.25,1l0,0l-0.25,1l-0.5,0.75l-0.75,0.5l-0.75,0.25l0,0l-1-0.25
		L210,18l-0.5-0.75V16.25L209.5,16.25L209.5,16.25z"/>
	<polygon points="230.75,28.5 230.75,28.5 230,26.75 228.75,25.25 228.25,24.75 227.5,24.5 226.75,24.25 226,24 226,24 
		224.75,24.25 223.75,25 223.25,26 223,27.25 223,27.25 223,28 223.25,28.5 224.25,29.75 225.5,30.5 227,31.25 227,31.25 
		229.25,32.25 231,33.75 231.75,34.5 232.25,35.25 232.5,36.25 232.75,37.5 232.75,37.5 232.5,39 232,40.25 231.25,41.25 
		230.25,42.25 229,43 227.75,43.5 226.5,43.75 225,43.75 225,43.75 223.5,43.75 222,43.25 220.75,42.75 219.75,42.25 219.75,42.25 
		219.25,40 219,36.75 220.25,36.5 220.25,36.5 221,38.75 222.25,40.5 223.25,41.25 224,41.75 225,42.25 226,42.25 226,42.25 
		227.25,42 228.25,41.5 229,40.5 229.25,39 229.25,39 229,37.75 228.25,36.75 227,35.75 225.5,35 225.5,35 223.5,33.75 221.75,32.5 
		221,31.75 220.25,30.75 220,29.75 219.75,28.5 219.75,28.5 220,27.5 220.25,26.25 221,25.25 221.75,24.5 222.75,23.75 224,23 
		225.25,22.75 226.75,22.75 226.75,22.75 228,22.75 229.25,22.75 231,23.5 231,23.5 231.5,25.75 232,28.25 230.75,28.5 	"/>
	<polygon points="238.75,43.75 238.75,43.75 237.75,43.75 237,43 236.5,42.25 236.25,41.25 236.25,41.25 236.5,40.25 237,39.25 
		237.75,38.75 238.75,38.5 238.75,38.5 239.75,38.75 240.75,39.25 241.25,40.25 241.5,41.25 241.5,41.25 241.25,42.25 240.75,43 
		239.75,43.75 238.75,43.75 238.75,43.75 	"/>
	<polygon points="259.75,38.75 259.75,38.75 257.5,41 255,42.5 252.75,43.5 251.5,43.75 250.5,43.75 250.5,43.75 249.5,43.75 
		248.5,43.5 247.75,42.75 247,42 246.5,41.25 246,40 245.75,38.5 245.75,37 245.75,37 245.75,35.5 246,34 247,31.25 247.5,29.75 
		248.5,28.25 249.25,27.25 250.25,26 250.25,26 252,24.75 254,23.75 256,23 257.75,22.75 257.75,22.75 259,22.75 260.25,23.25 
		261,24 261.25,25 261.25,25 261.25,25.5 260.75,26 260.5,26.5 259.75,27 259.75,27 259.25,27.25 258.75,26.75 258.75,26.75 258,26 
		257.25,25.25 256.25,25 255.25,24.75 255.25,24.75 254,25 253,25.75 252.25,26.75 251.5,27.75 251.5,27.75 250.75,29.5 250,31.5 
		249.5,33.75 249.5,36.25 249.5,36.25 249.75,38.25 250,39.25 250.25,39.75 250.75,40.5 251.25,40.75 252,41 252.75,41 252.75,41 
		253.5,41 254.5,40.75 256.25,40 257.75,38.75 259,37.75 259.75,38.75 	"/>
	<path d="M262.5,36.75L262.5,36.75l0.25-2.25l0.25-2l0.75-2l0.75-1.5l1-1.5l1.25-1.5l1.25-1l1.5-1l0,0l2.5-1l1.25-0.25h1.25l0,0
		h1.25L277,23l1,0.75l1,0.75l0.75,1l0.5,1.25l0.25,1.5v1.5l0,0v1.5l-0.25,1.5l-0.5,1.5l-0.5,1.5l-0.75,1.5l-0.75,1.25l-1,1.25
		l-1,1.25l0,0L274,42l-1.75,1l-1.75,0.5l-2,0.25l0,0H267l-1.25-0.5l-1-0.75L264,41.75l-0.75-1.25l-0.5-1.25L262.5,38V36.75
		L262.5,36.75L262.5,36.75z M271.75,41.75L271.75,41.75l0.75-0.5l1-1l0.75-1.25l1-1.5l0.5-1.5l0.5-2l0.25-2l0.25-2l0,0v-1.5l-0.25-1
		l-0.5-1l-0.25-0.75l-0.75-0.5l-0.5-0.5l-0.75-0.25H273l0,0h-1l-0.75,0.25l0,0l-0.75,0.5L269.75,26L269,27l-1,1.25l-0.5,1.5l-0.75,2
		L266.5,34l-0.25,2.5l0,0l0.25,2.25l0.5,1l0.5,0.75L268,41l0.5,0.5l0.75,0.5h1l0,0H271L271.75,41.75L271.75,41.75L271.75,41.75z"/>
	<polygon points="315.5,39.5 315.5,39.5 313.5,41.25 311.75,42.75 310,43.5 309,43.75 309,43.75 308.5,43.75 308.25,43.5 
		307.75,42.75 307.75,41.25 308.25,39 310.75,28.5 310.75,28.5 311,27 311,26.25 310.75,25.75 310.25,25.5 310.25,25.5 
		309.25,25.75 308.25,26.5 306.75,27.75 305.5,29.25 302.75,32.25 301,35 301,35 299.25,43 299.25,43 297.25,43.25 295.75,43.75 
		295.5,43.5 295.5,43.5 297.25,36.5 298.75,29.75 298.75,29.75 299.25,27.75 299.25,26.5 299,25.75 298.5,25.5 298.5,25.5 
		297.5,25.75 296.25,26.5 295,27.75 293.5,29.25 291,32.25 289.25,35 289.25,35 288.25,38.75 287.25,43 287.25,43 285.5,43.25 
		284,43.75 283.75,43.5 283.75,43.5 285.75,35.75 287.5,28 287.5,28 287.75,26.25 287.5,26 287.5,26 287.5,26 286.75,26 286,26.75 
		284.25,28.25 283.75,27 283.75,27 285.5,25.25 287.5,23.75 289,23 290.25,22.75 290.25,22.75 290.5,22.75 290.75,23 291.25,24 
		291,25.75 290.5,28.25 289.75,31.5 289.75,31.5 289.75,31.5 292.25,28.5 294.5,26.25 296.5,24.75 298,23.5 298,23.5 299.5,22.75 
		301,22.75 301,22.75 301.25,22.75 301.75,23 302.25,23.25 302.5,24 302.5,24.75 302.5,26 302,29.5 301.5,31.5 301.75,31.5 
		301.75,31.5 304,28.5 306.25,26.25 308.5,24.5 310,23.5 310,23.5 311.5,22.75 313,22.75 313,22.75 313.75,22.75 314,23.25 
		314.25,23.75 314.5,24.5 314.5,25.75 314.25,27.25 314,29.25 311.5,39 311.5,39 311.5,40 311.5,40.25 311.75,40.5 311.75,40.5 
		313,39.75 314.75,38.25 315.5,39.5 	"/>
	<polygon fill="#439539" points="31.5,43.5 31.5,43.5 36,42.5 38.75,41.75 39.25,41.5 39.5,41 39.5,40.75 39,40.5 37.25,40.25 
		34.25,40 25.5,39.75 25.5,39.75 21.75,39.5 19.5,39.25 18.75,39 18.5,38.75 18.25,38.5 18.5,38.25 19.5,37.5 21.5,36.75 
		27.5,35.25 27.5,35.25 29,34.75 30.75,34.25 32,33.5 32.5,33.25 32.5,33 32.25,32.5 31.5,32.25 28.75,31.75 23.75,31.5 16,31.5 
		16,31.5 15.75,31.5 15.5,31.25 15.75,31.25 16.25,31.25 16.25,31.25 24,31 29.75,31 33.75,31.5 36,32 36.5,32.5 36.75,32.75 
		36.5,33.25 36,33.5 34.25,34.5 31.25,35.25 31.25,35.25 28,36.25 26.5,36.75 25.5,37.25 25.25,37.5 25,37.75 25.25,38 25.75,38.25 
		27.5,38.5 30.75,38.75 30.75,38.75 40.25,39.25 43.5,39.5 45.5,40 46,40.25 46.25,40.5 46,40.75 45.5,41.25 43,42.25 38.75,43.5 
		38.75,43.5 35.25,44.5 32.25,45.75 30,47.25 28.25,48.75 27.25,50.5 27,51.25 27,52.25 27,53 27.25,53.75 28,55.5 28,55.5 
		30.5,54.75 32.75,54 35,53.25 37.25,52 39.5,50.75 41.5,49.5 43.5,47.75 45.5,46 45.5,46 48.75,42.75 51.25,39.25 53.25,35.5 
		55,31.75 32.5,19.25 32.5,19.25 31.75,19 30.75,19 30,19 29,19.25 10.75,30.25 10.75,30.25 10,30.5 10.5,29.75 29.75,11.5 
		29.75,11.5 30.25,11 31,11 32,11 32.5,11.25 55.75,28.75 55.75,28.75 56.25,26 56.5,23.25 56.25,20.5 56,18 55.25,15.5 
		54.25,13.25 53,11 51.25,9 51.25,9 50,7.75 48.5,6.5 46.75,5.75 45.25,4.75 43.25,4.25 41.5,3.75 39.5,3.5 37.25,3.25 37.25,3.25 
		34.25,3.5 31.25,3.75 28.25,4.75 25.25,5.75 22.25,7.25 19.5,8.75 16.75,10.75 14,13.25 14,13.25 12,15.25 10,17.75 8.5,20 7,22.5 
		5.75,25 4.75,27.5 4,30 3.5,32.5 3.25,35 3.25,37.5 3.5,39.75 4,42.25 4.5,44.25 5.5,46.5 6.75,48.5 8.25,50.25 8.25,50.25 
		10,51.5 11.75,52.75 11.75,52.75 13,51.5 14.75,50 16.75,48.75 19,47.5 21.75,46.5 24.5,45.25 27.75,44.25 31.5,43.5 31.5,43.5 	
		"/>
	<polygon points="59.75,22.75 59.75,22.75 59.5,20.5 59.25,18.25 58.75,16 58.25,14 57.25,12 56.25,10.25 55,8.5 53.5,6.75 
		53.5,6.75 52,5.25 50.25,4 48.5,2.75 46.5,2 44.25,1.25 42,0.5 39.75,0.25 37.5,0 37.5,0 34,0.25 30.75,0.75 27.25,1.5 24,2.75 
		20.75,4.25 17.75,6.25 14.75,8.25 11.75,10.75 11.75,10.75 9.5,13.25 7.5,15.75 5.5,18.5 4,21.25 2.75,24 1.5,26.75 0.75,29.5 
		0.25,32.5 0,35.25 0,38 0.25,40.75 1,43.25 1.75,45.75 3,48.25 4.25,50.25 6,52.5 6,52.5 7.75,54 9.75,55.5 9.75,55.5 10.75,54.25 
		11.75,52.75 11.75,52.75 10,51.5 8.25,50.25 8.25,50.25 6.75,48.5 5.5,46.5 4.5,44.25 4,42.25 3.5,39.75 3.25,37.5 3.25,35 
		3.5,32.5 4,30 4.75,27.5 5.75,25 7,22.5 8.5,20 10,17.75 12,15.25 14,13.25 14,13.25 16.75,10.75 19.5,8.75 22.25,7.25 25.25,5.75 
		28.25,4.75 31.25,3.75 34.25,3.5 37.25,3.25 37.25,3.25 39.5,3.5 41.5,3.75 43.25,4.25 45.25,4.75 46.75,5.75 48.5,6.5 50,7.75 
		51.25,9 51.25,9 53,11 54.25,13.25 55.25,15.5 56,18 56.25,20.5 56.5,23.25 56.25,26 55.75,28.75 55.75,28.75 55,31.75 55,31.75 
		53.25,35.5 51.25,39.25 48.75,42.75 45.5,46 45.5,46 43.5,47.75 41.5,49.5 39.5,50.75 37.25,52 35,53.25 32.75,54 30.5,54.75 
		28,55.5 28,55.5 29.5,56.75 31.25,58 31.25,58 33.5,57.25 35.5,56.5 40,54.25 44,51.5 46,50 47.75,48.25 47.75,48.25 50.5,45.5 
		53,42.5 55,39.25 56.5,36 58,32.75 58.75,29.25 59.5,26 59.75,22.75 59.75,22.75 	"/>
	<polygon fill="#FFFFFF" points="28,55.5 28,55.5 27.25,53.75 27,53 27,52.25 27,51.25 27.25,50.5 28.25,48.75 30,47.25 
		32.25,45.75 35.25,44.5 38.75,43.5 38.75,43.5 43,42.25 45.5,41.25 46,40.75 46.25,40.5 46,40.25 45.5,40 43.5,39.5 40.25,39.25 
		30.75,38.75 30.75,38.75 27.5,38.5 25.75,38.25 25.25,38 25,37.75 25.25,37.5 25.5,37.25 26.5,36.75 28,36.25 31.25,35.25 
		31.25,35.25 34.25,34.5 36,33.5 36.5,33.25 36.75,32.75 36.5,32.5 36,32 33.75,31.5 29.75,31 24,31 16.25,31.25 16.25,31.25 
		15.75,31.25 15.5,31.25 15.75,31.5 16,31.5 16,31.5 23.75,31.5 28.75,31.75 31.5,32.25 32.25,32.5 32.5,33 32.5,33.25 32,33.5 
		30.75,34.25 29,34.75 27.5,35.25 27.5,35.25 21.5,36.75 19.5,37.5 18.5,38.25 18.25,38.5 18.5,38.75 18.75,39 19.5,39.25 
		21.75,39.5 25.5,39.75 25.5,39.75 34.25,40 37.25,40.25 39,40.5 39.5,40.75 39.5,41 39.25,41.5 38.75,41.75 36,42.5 31.5,43.5 
		31.5,43.5 27.75,44.25 24.5,45.25 21.75,46.5 19,47.5 16.75,48.75 14.75,50 13,51.5 11.75,52.75 11.75,52.75 10.75,54.25 
		9.75,55.5 9.75,55.5 12.5,57 15.5,58.25 18.75,58.75 22.25,59.25 22.25,59.25 24.5,59 26.75,59 29,58.5 31.25,58 31.25,58 
		29.5,56.75 28,55.5 28,55.5 	"/>
	<polygon fill="#FFFFFF" points="29.75,11.5 10.5,29.75 10.5,29.75 10,30.5 10.75,30.25 29,19.25 29,19.25 30,19 30.75,19 31.75,19 
		32.5,19.25 55,31.75 55,31.75 55.75,28.75 32.5,11.25 32.5,11.25 32,11 31,11 30.25,11 29.75,11.5 29.75,11.5 	"/>
</g>
</svg>
