<?xml version="1.0" encoding="utf-8"?>
<!-- Generator: Adobe Illustrator 16.0.1, SVG Export Plug-In . SVG Version: 6.00 Build 0)  -->
<!DOCTYPE svg PUBLIC "-//W3C//DTD SVG 1.1//EN" "http://www.w3.org/Graphics/SVG/1.1/DTD/svg11.dtd">
<svg version="1.1" id="Layer_1" xmlns="http://www.w3.org/2000/svg" xmlns:xlink="http://www.w3.org/1999/xlink" x="0px" y="0px"
	 width="286.262px" height="66.324px" viewBox="0 0 286.262 66.324" enable-background="new 0 0 286.262 66.324"
	 xml:space="preserve">
<g>
	<g>
		<path d="M83.039,10.652c1.801-0.266,3.602-0.604,5.473-0.604c5.414,0,9.016,4.008,9.016,9.354c0,7.41-6.676,9.684-13.023,9.684
			h-1.465V10.652z M114.414,51.857v-1.205c-6.066-0.465-8.469-3.738-11.738-8.279l-8.621-12.021
			c5.809-1.199,10.953-4.805,10.953-11.219c0-3.867-2.332-11.48-15.359-11.48h-19.17v1.203c6.279,0,6.279,1.668,6.279,7.273v27.25
			c0,5.609,0,7.273-6.279,7.273v1.205h18.834v-1.205c-6.273,0-6.273-1.664-6.273-7.273V31.227h4.535l15.031,20.631H114.414z"/>
		<path d="M210.274,27.238c3.746-4.145,6.344-6.277,10.152-6.277c5.414,0,7.547,5.074,7.547,10.082v15.021
			c0,3.939,1.535,4.412,4.605,4.479v1.203h-14.621v-1.203c3.07-0.066,4.609-0.539,4.609-4.479V32.24
			c0-6.611-2.742-7.271-4.742-7.271c-3.07,0-5.344,2-7.551,4.27v16.826c0,3.939,1.535,4.412,4.609,4.479v1.203h-14.629v-1.203
			c3.078-0.066,4.613-0.539,4.613-4.479V29.777c0-4.545-1.406-4.545-2.338-4.545c-0.738,0-1.607,0.271-2.275,0.533l-0.465-1.137
			l9.016-3.668h1.469V27.238z"/>
		<path d="M259.368,40.391c-1.133,6.211-5.676,12.289-12.422,12.289c-7.543,0-12.754-6.814-12.754-15.961
			c0-9.611,6.813-15.758,14.293-15.758c3.941,0,10.012,2.602,10.012,7.211c0,1.73-1.266,2.738-2.934,2.738
			c-2.734,0-3.469-1.406-3.742-3.803c-0.199-2.611-1.805-3.881-4.406-3.881c-5.746,0-8.012,5.816-8.012,10.756
			c0,5.74,2.934,13.623,9.75,13.623c4.801,0,7.746-3.543,9.285-7.682L259.368,40.391z"/>
		<path d="M159.968,47.49c-10.383-0.061-11.855-0.529-11.855-2.139c0-1.479,1.406-2.949,2.48-3.828
			c1.406,0.406,2.813,0.672,4.281,0.672c8.181,0,11.997-5.156,11.997-10.176c0-1.742-0.539-4.563-1.605-6.031h4.766l1.906-2.551
			c0,0-8.375,0-8.895,0c-1.273-1.139-3.888-2.477-7.626-2.477c-8.781,0-12.133,6.426-12.133,10.918c0,3.891,2.082,7.434,5.699,9.051
			c-2.012,1.742-5.293,4.223-5.293,7.105c0,1.734,1.867,2.742,3.281,3.344l-1.676,1.742c-1.406,1.473-4.422,4.691-4.422,6.836
			c0,4.555,8.582,6.367,13.199,6.367c10.923,0,16.681-7.172,16.681-11.254C170.754,50.105,167.747,47.563,159.968,47.49z
			 M154.542,22.563c5.094,0,6.634,6.035,6.634,10.119c0,1.479,0,7.904-5.63,7.904c-5.164,0-6.563-6.029-6.563-10.18
			C148.984,23.77,152.664,22.563,154.542,22.563z M156.691,62.365c-6.367,0-10.992-2.01-10.992-4.752
			c0-2.211,1.676-4.227,2.875-5.77c2.484,0.602,9.387,0.742,11.395,0.742c3.149,0,8.38,0,8.38,3.279
			C168.348,58.82,164.997,62.365,156.691,62.365z"/>
		<path d="M129.207,47.328c-7.273,0-10.746-7.477-10.746-14.148c0-6.211,3.203-9.816,7.078-9.816c4.73,0,6.801,3.672,6.801,7.809
			h-11.008l1.484,2.008h16.332c0-7.211-4.539-12.219-11.406-12.219c-9.473,0-13.813,7.738-13.813,16.354
			c0,9.146,5.734,15.354,13.008,15.354c6.738,0,11.074-5.672,12.211-11.813l-1.004-0.668
			C136.609,44.527,134.007,47.328,129.207,47.328z"/>
		<path d="M187.813,47.328c-7.273,0-10.742-7.477-10.742-14.148c0-6.211,3.199-9.816,7.066-9.816c4.738,0,6.809,3.672,6.809,7.809
			h-11.008l1.484,2.008h16.328c0-7.211-4.535-12.219-11.406-12.219c-9.473,0-13.816,7.738-13.816,16.354
			c0,9.146,5.738,15.354,13.016,15.354c6.738,0,11.07-5.672,12.207-11.813l-0.996-0.668
			C195.215,44.527,192.614,47.328,187.813,47.328z"/>
		<path d="M276.321,47.313c-7.273,0-10.738-7.484-10.738-14.152c0-6.215,3.195-9.816,7.066-9.816c4.742,0,6.809,3.672,6.809,7.813
			h-11.004l1.48,2.004h16.328c0-7.207-4.531-12.221-11.414-12.221c-9.465,0-13.809,7.74-13.809,16.359
			c0,9.146,5.742,15.354,13.016,15.354c6.742,0,11.07-5.676,12.207-11.816l-1.004-0.664
			C283.731,44.512,281.129,47.313,276.321,47.313z"/>
	</g>
	<path fill="#0082C4" d="M38.506,58.531c0-1.568,1.29-2.859,2.892-2.859c1.59,0,2.875,1.291,2.875,2.859
		c0,1.586-1.285,2.871-2.875,2.871C39.796,61.402,38.506,60.117,38.506,58.531z M43.816,58.531c0-1.4-1.012-2.402-2.418-2.402
		c-1.414,0-2.435,1.002-2.435,2.402c0,1.414,1.021,2.416,2.435,2.416C42.804,60.947,43.816,59.945,43.816,58.531z M40.738,60.156
		h-0.422v-3.277h1.422c0.859,0,1.152,0.316,1.152,0.906c0,0.637-0.445,0.871-1.02,0.912l0.98,1.459h-0.473l-0.93-1.459h-0.711
		V60.156z M41.32,58.32c0.465,0,1.109,0.074,1.109-0.543c0-0.457-0.387-0.516-0.789-0.516h-0.902v1.059H41.32z"/>
	<path fill="#0082C4" d="M24.948,62.113c11.715-6.434,18.821-16.668,22.478-27.908c3.797-11.654,3.102-25.568-1.297-34.162
		c-6.692,3.346-13.36,5.148-21.181,5.168C17.127,5.238,10.456,3.348,3.764,0c-4.398,8.598-5.09,22.551-1.293,34.205
		C6.135,45.445,13.233,55.68,24.948,62.113L24.948,62.113z"/>
	<path fill="#FFFFFF" d="M24.932,56.902c9.645-5.93,14.778-14.434,18.075-24.031c2.926-8.52,3.637-18.484,0.422-26.262
		c-4.817,1.633-7.646,2.141-10.263,2.547c-2.445,0.395-4.629,0.607-8.207,0.66h-0.027c-3.574-0.053-5.758-0.266-8.199-0.66
		C14.112,8.75,11.288,8.242,6.467,6.609C3.26,14.387,3.971,24.352,6.889,32.871c3.293,9.598,8.426,18.102,18.07,24.031H24.932z"/>
	<path fill="#0082C4" d="M24.944,54.543c6.52-4.063,13.914-13.316,16.868-25.48c1.57-6.453,2.012-13.715-0.035-19.461
		c-2.919,0.773-5.646,1.412-8.466,1.785c-2.824,0.383-5.609,0.656-8.352,0.676h-0.027c-2.734-0.02-5.527-0.293-8.348-0.676
		c-2.816-0.373-5.547-1.012-8.465-1.785c-2.035,5.746-1.602,13.008-0.035,19.461c2.953,12.164,10.355,21.418,16.867,25.48H24.944z"
		/>
	<path fill="#FFFFFF" d="M17.995,16.381c-2.195,1.133-3.203,3.979-2.082,6.264c0.906,1.844,2.641,2.801,4.695,3.311
		c0.988,0.256,1.855,0.396,2.945,0.514c1.242,0.129,2.344,0.188,3.543,0.492c0.258,0.061,0.809,0.266,0.949,0.508
		c0.352,0.57-0.039,1.023-0.617,1.262c-0.016,1.039-0.148,3.215-0.148,3.215s5.18-0.549,4.313-5.094
		c-0.211-1.096-1.344-2.129-2.324-2.625c-2.566-1.316-5.371-0.846-8-1.688c-0.758-0.238-1.656-0.592-1.863-1.441
		c-0.129-0.535-0.125-1.078,0.273-1.305c0.598-0.363,1.047,0.203,2.012,0.426c0.609,0.141,1.258,0.119,1.734-0.014
		c0.215-0.068,0.508-0.133,0.543-0.295c0-0.154-0.477-0.266-0.598-0.322c-0.297-0.15-0.484-0.146-0.809-0.268
		c-0.523-0.203-1.023-0.57-1.559-0.873c0.504-0.1,1.352-0.125,1.848-0.068c0.402,0.051,1.641,0.043,2.012-0.057
		c0.082-0.025,0.27-0.096,0.184-0.234c-0.148-0.236-0.387-0.326-0.555-0.553c-0.359-0.48-0.668-0.984-1.254-1.219
		C21.549,15.68,19.678,15.512,17.995,16.381z"/>
	<path fill="#FFFFFF" d="M26.413,32.453l0.125-4.586c0,0-0.648-0.27-1.613-0.336c-1.266-0.086-1.789-0.137-1.789-0.137l0.016,0.395
		c0,0-0.738,0.1-0.828,0.266c-0.047,0.07-0.113,0.238,0.039,0.512c0.676,1.219,1.074,1.793,1.387,3.453
		C24.709,32.146,25.385,32.254,26.413,32.453z"/>
	<path fill="#FFFFFF" d="M19.002,31.836c-0.133,2.098,1.563,3.242,3.773,3.598c1.223,0.203,2.371,0.344,3.621,0.484
		c0.156,0.016,0.547,0.059,0.797,0.168c0.219,0.094,0.34,0.285,0.359,0.434c0.035,0.203,0.004,0.318-0.125,0.48
		c-0.133,0.164-0.32,0.203-0.32,0.203l-0.074,2.516c0,0,0.855-0.035,1.684-0.527c0.777-0.469,1.262-1.063,1.438-1.813
		c0.203-0.859,0.066-1.551-0.555-2.398c-0.41-0.555-1.121-0.961-1.844-1.209c-1.09-0.369-3.145-0.619-4.688-0.838
		c-0.242-0.031-0.617-0.178-0.656-0.523c-0.043-0.389,0.434-0.465,0.434-0.465s-0.113-0.365-0.305-0.939
		c-0.129-0.318-0.371-0.912-0.711-1.51C20.573,29.785,19.088,30.441,19.002,31.836z"/>
	<path fill="#FFFFFF" d="M26.284,36.723l-0.086,4.158l-0.969-0.521l-0.961-0.457l-0.219-3.426
		C25.061,36.602,25.432,36.625,26.284,36.723z"/>
	<path fill="#FFFFFF" d="M21.03,39.021c-0.625,1.463,0.063,2.799,1.598,3.463c0.66,0.285,1.578,0.551,2.281,0.813
		c0.68,0.27,1.961,1.113,2.047,1.467c0.059,0.225-0.145,0.396-0.145,0.396l-0.07,1.773c0,0,0.656-0.148,1.207-0.598
		c0.516-0.422,0.891-0.977,0.887-1.855c-0.008-0.959-0.457-1.543-1.84-2.352c-1.07-0.625-2.535-1.207-3.551-1.645
		c-0.078-0.039-0.414-0.242-0.305-0.609c0.066-0.191,0.266-0.258,0.266-0.258l-0.156-2.082c0,0-0.543,0.168-0.906,0.379
		C22.002,38.117,21.252,38.484,21.03,39.021z"/>
	<path fill="#FFFFFF" d="M26.143,45.105c0.004-0.15-0.047-0.168-0.109-0.27c-0.305-0.314-0.664-0.527-0.766-0.594
		c-0.32-0.184-0.988-0.391-0.988-0.391s0.102,4.486,0.188,6.871c0.016,0.539,0.238,0.723,0.766,0.711
		c0.621-0.012,0.742-0.266,0.75-0.59C25.995,50.078,26.108,46.836,26.143,45.105z"/>
	<path fill="#FFFFFF" d="M26.831,15.344c0.23,0.168,0.234,0.211,0.305,0.559c0.16,0.734-0.129,1.811,0.016,2.324
		c0.078,0.168,0.246,0.16,0.367,0.096c1.031-0.559,1.73-1.506,2.777-1.943c0.484-0.207,1.883,0.488,1.563,1.5
		c-0.141,0.477-0.258,0.465-0.57,0.75c-0.656,0.598-1.531,1.207-2.375,2.016c-0.543,0.52-1.07,0.816-1.449,1.441
		c-0.098,0.137-0.297,0.527-0.297,0.527c-1.441-0.293-2.918-0.313-4.047-0.547l-0.051-1.219c0,0,1.449-0.018,1.59-0.885
		c0.004-0.049-0.023-0.303-0.191-0.424c-0.199-0.15-0.691-0.313-0.797-0.342c1.094,0.166,2.125,0.572,3.25,1.057
		c0.074-0.123-0.113-0.535-0.199-0.629c-0.152-0.172-0.336-0.303-0.727-0.398c-0.68-0.176-2.336-0.375-2.336-0.375
		s0.598-0.021,1.402-0.055c0.344-0.051,0.766-0.188,0.848-0.309c0.082-0.18-0.031-0.445-0.273-0.707
		c-0.164-0.172-0.387-0.336-0.523-0.51c-0.168-0.232-0.387-0.67-0.691-0.941c-0.359-0.428-1.469-0.846-1.469-0.846
		s-0.09-0.73,0.094-1.098c0.137-0.262,0.73-0.289,0.914-0.195C24.788,14.639,25.725,15.156,26.831,15.344z"/>
	<path fill="#0082C4" d="M23.069,17.035c-0.211,0.141-0.363,0.293-0.605,0.328c-0.469,0.082-0.406-0.328-0.73-0.563
		c-0.195-0.133-0.387,0.037-0.566-0.281c0.688,0.016,1.719,0.031,2.238,0.553C23.342,17.035,23.096,17.006,23.069,17.035z"/>
	<g>
		<path fill="#FFFFFF" d="M23.081,46.58c-0.27,0.268-0.855,0.826-0.738,2.006c0.07,0.734,0.234,0.965,0.484,1.457
			c0.188,0.346,0.492,0.496,0.598,0.016c0.066-0.297-0.199-0.566-0.105-1.191c0.086-0.629,0.41-0.754,0.41-0.754l-0.09-1.961
			C23.639,46.152,23.374,46.301,23.081,46.58z"/>
	</g>
</g>
</svg>
