<?xml version="1.0" encoding="utf-8"?>
<!-- Generator: Adobe Illustrator 16.0.0, SVG Export Plug-In . SVG Version: 6.00 Build 0)  -->
<!DOCTYPE svg PUBLIC "-//W3C//DTD SVG 1.1//EN" "http://www.w3.org/Graphics/SVG/1.1/DTD/svg11.dtd">
<svg version="1.1" id="Layer_1" xmlns="http://www.w3.org/2000/svg" xmlns:xlink="http://www.w3.org/1999/xlink" x="0px" y="0px"
	 width="24.02px" height="24.02px" viewBox="0 0 24.02 24.02" enable-background="new 0 0 24.02 24.02" xml:space="preserve">
<path fill-rule="evenodd" clip-rule="evenodd" d="M14.06,6.09c-0.32-0.29-0.689-0.44-1.13-0.44S12.12,5.8,11.8,6.09
	c-0.311,0.29-0.47,0.64-0.47,1.05c0,0.41,0.159,0.77,0.47,1.05c0.32,0.29,0.689,0.44,1.13,0.44s0.81-0.15,1.13-0.44
	c0.311-0.28,0.46-0.64,0.46-1.05C14.52,6.73,14.37,6.38,14.06,6.09z M9.05,10.63l-0.18,0.73c0.13-0.05,0.29-0.1,0.47-0.16
	c0.18-0.05,0.36-0.08,0.53-0.08c0.359,0,0.6,0.06,0.72,0.18c0.13,0.12,0.19,0.33,0.19,0.63c0,0.17-0.02,0.359-0.06,0.561
	c-0.04,0.199-0.09,0.42-0.15,0.64l-0.67,2.37c-0.06,0.25-0.109,0.48-0.13,0.67c-0.03,0.199-0.04,0.39-0.04,0.58
	c0,0.49,0.18,0.89,0.54,1.21c0.36,0.319,0.86,0.47,1.511,0.47c0.42,0,0.789-0.05,1.109-0.16c0.32-0.109,0.75-0.27,1.28-0.49
	l0.18-0.729c-0.09,0.05-0.239,0.101-0.44,0.149c-0.209,0.061-0.39,0.09-0.56,0.09c-0.34,0-0.58-0.059-0.72-0.17
	c-0.15-0.109-0.221-0.33-0.221-0.639c0-0.131,0.03-0.311,0.07-0.551c0.04-0.25,0.09-0.46,0.15-0.65l0.66-2.369
	c0.07-0.211,0.109-0.45,0.14-0.711c0.021-0.26,0.03-0.439,0.03-0.539c0-0.5-0.17-0.91-0.521-1.22c-0.35-0.31-0.85-0.46-1.489-0.46
	c-0.36,0-0.74,0.06-1.141,0.19C9.91,10.29,9.49,10.45,9.05,10.63z M12.01,20.99c-4.95,0-8.98-4.03-8.98-8.98s4.03-8.98,8.98-8.98
	s8.979,4.03,8.979,8.98S16.96,20.99,12.01,20.99z M12.01,1.5C6.22,1.51,1.51,6.21,1.5,12.01c0.01,5.79,4.72,10.5,10.51,10.51
	c5.79-0.01,10.5-4.72,10.51-10.51C22.51,6.21,17.8,1.51,12.01,1.5z M12.01,24.02C5.39,24.02,0,18.63,0,12.01C0,5.38,5.39,0,12.01,0
	s12.01,5.38,12.01,12.01C24.02,18.63,18.63,24.02,12.01,24.02z"/>
</svg>
