<?xml version="1.0" encoding="utf-8"?>
<!-- Generator: Adobe Illustrator 16.0.0, SVG Export Plug-In . SVG Version: 6.00 Build 0)  -->
<!DOCTYPE svg PUBLIC "-//W3C//DTD SVG 1.1//EN" "http://www.w3.org/Graphics/SVG/1.1/DTD/svg11.dtd">
<svg version="1.1" id="Layer_1" xmlns="http://www.w3.org/2000/svg" xmlns:xlink="http://www.w3.org/1999/xlink" x="0px" y="0px"
	 width="33.021px" height="32.999px" viewBox="0 0 33.021 32.999" enable-background="new 0 0 33.021 32.999" xml:space="preserve">
<g>
	<path d="M20.684,0C13.881,0,8.347,5.533,8.347,12.336c0,6.803,5.534,12.336,12.337,12.336s12.337-5.533,12.337-12.336
		C33.021,5.533,27.486,0,20.684,0z M20.684,20.963c-4.759,0-8.629-3.87-8.629-8.627s3.87-8.628,8.629-8.628
		c4.758,0,8.628,3.87,8.628,8.628S25.441,20.963,20.684,20.963z"/>
	<path d="M1.171,26.692l6.8-7.031c1.229,2.127,2.977,3.912,5.07,5.195l-6.944,7.182c-1.476,1.359-3.774,1.266-5.134-0.211
		C-0.398,30.35-0.305,28.051,1.171,26.692z"/>
</g>
</svg>
